<svg xmlns="http://www.w3.org/2000/svg" version="1.1" xmlns:xlink="http://www.w3.org/1999/xlink" xml:space="preserve" x="0px" y="0px" width="100%" height="100%">

    <symbol id="qs-admin" viewBox="0 0 80 80">
      <path fill="#DC3031" d="M79.1,47.3c0.5,0,0.9-0.4,0.9-0.9V0.8C80,0.3,79.6,0,79.1,0h-46c-0.5,0-0.9,0.3-0.9,0.8v29.8H10.9
        c-2.1,0-3.8,1.7-3.8,3.9v37H1.7c-0.9,0-1.7,0.8-1.7,1.8v2.2c0,0.4,0.1,1.3,0.6,1.9C1.3,78.2,3.2,80,5.8,80h68.3
        c2.6,0,4.5-1.8,5.2-2.6c0.6-0.6,0.7-1.5,0.7-1.9v-2.2c0-0.9-0.8-1.8-1.7-1.8h-5.6V47.3H79.1z M78.3,75.4c0,0.3-0.1,0.7-0.2,0.8
        c-0.5,0.6-2,2.1-3.9,2.1c-6.7,0-61.6,0-68.3,0c-1.9,0-3.4-1.5-3.9-2.1c-0.1-0.1-0.2-0.5-0.2-0.8v-2.3c3.2,0,74.6,0,76.6,0V75.4z
        M8.9,71.5c0-10.6,0-37,0-37c0-1.2,0.9-2.2,2.1-2.2c1.2,0,10.6,0,21.4,0v7h-20c-0.1,0-0.1,0-0.1,0.1v28.7c0,0.1,0.1,0.1,0.1,0.1h55
        c0.1,0,0.2-0.1,0.2-0.1V47.3H71c0,8.2,0,18.2,0,24.2H8.9z M78.3,1.7v43.9H34V1.7H78.3z M33.2,47.3h32.7v19.2H14V41h18.4v5.4
        C32.3,46.9,32.7,47.3,33.2,47.3z"/>
      <path fill="#DC3031" d="M38.4,27.1l3.5,0.9c0.3,1,0.7,1.8,1.1,2.6l-1.8,3.1c-0.2,0.3-0.1,0.8,0.1,1l3.9,3.9c0.3,0.3,0.7,0.3,1,0.1
        l3.1-1.9c0.9,0.5,1.7,0.8,2.6,1.1l0.9,3.5c0.1,0.4,0.4,0.6,0.8,0.6h5.4c0.4,0,0.7-0.3,0.8-0.6l0.9-3.5c0.9-0.3,1.8-0.7,2.6-1.1
        l3.1,1.8c0.3,0.2,0.8,0.1,1-0.1l3.9-3.9c0.3-0.3,0.3-0.7,0.1-1l-1.9-3.1c0.4-0.8,0.8-1.7,1.1-2.6l3.5-0.9c0.4-0.1,0.6-0.4,0.6-0.8
        v-5.5c0-0.4-0.3-0.7-0.6-0.8l-3.5-0.9c-0.3-0.9-0.7-1.8-1.1-2.6l1.8-3.1c0.2-0.3,0.1-0.8-0.1-1l-3.9-3.9c-0.3-0.3-0.7-0.3-1-0.1
        l-3.1,1.9c-0.7-0.4-1.6-0.7-2.6-1l-0.9-3.4c-0.1-0.4-0.4-0.6-0.8-0.6h-5.5c-0.4,0-0.7,0.3-0.8,0.6l-0.9,3.4c-1,0.3-1.9,0.7-2.6,1
        l-3.1-1.8c-0.3-0.2-0.8-0.1-1,0.1l-3.9,3.9c-0.3,0.3-0.3,0.7-0.1,1l1.9,3.1c-0.4,0.8-0.8,1.7-1.1,2.6L38.4,20
        c-0.4,0.1-0.6,0.4-0.6,0.8v5.5C37.8,26.7,38.1,27,38.4,27.1z M39.5,21.5l3.3-0.8c0.3-0.1,0.5-0.3,0.6-0.6c0.3-1.2,0.8-2.2,1.3-3.1
        c0.2-0.3,0.1-0.6,0-0.9l-1.8-2.9l2.9-2.9l3,1.8c0.3,0.2,0.6,0.2,0.9,0c0.8-0.5,1.8-0.9,3.1-1.3c0.3-0.1,0.5-0.3,0.6-0.6l0.8-3.3
        h4.2l0.8,3.2c0.1,0.3,0.3,0.5,0.6,0.6c1.3,0.4,2.3,0.8,3.1,1.2c0.3,0.2,0.6,0.1,0.9,0l2.9-1.8l3,3l-1.7,3c-0.2,0.3-0.2,0.6,0,0.9
        c0.5,0.9,1,1.9,1.3,3.1c0.1,0.3,0.3,0.5,0.6,0.6l3.3,0.8v4.2l-3.3,0.8c-0.3,0.1-0.5,0.3-0.6,0.6c-0.3,1.1-0.8,2.1-1.3,3.1
        c-0.2,0.3-0.1,0.6,0,0.9l1.8,2.9l-3,3l-3-1.7c-0.3-0.2-0.6-0.2-0.9,0c-0.9,0.5-2,1-3.1,1.3c-0.3,0.1-0.5,0.3-0.6,0.6l-0.8,3.4h-4.1
        l-0.9-3.4c-0.1-0.3-0.3-0.5-0.6-0.6c-1-0.3-2.1-0.7-3.1-1.4c-0.3-0.2-0.6-0.1-0.9,0L45.9,37l-3-3l1.7-3c0.2-0.3,0.2-0.6,0-0.9
        c-0.5-0.9-0.9-1.9-1.3-3.1c-0.1-0.3-0.3-0.5-0.6-0.6l-3.3-0.8V21.5z"/>
      <path fill="#DC3031" d="M56.3,32.3c4.9,0,8.8-3.9,8.8-8.8s-3.9-8.8-8.8-8.8s-8.8,3.9-8.8,8.8S51.4,32.3,56.3,32.3z M63.4,23.5
        c0,3.9-3.2,7.1-7.1,7.1c-3.9,0-7.1-3.2-7.1-7.1s3.2-7.1,7.1-7.1C60.2,16.4,63.4,19.6,63.4,23.5z"/>
    </symbol>

    <symbol id="qs-qs" viewBox="0 0 80 80">
      <path fill="#DC3031" d="M11.1,37c3.3,0,5.9-2.7,5.9-5.9s-2.7-5.9-5.9-5.9s-5.9,2.7-5.9,5.9S7.8,37,11.1,37z M15.4,31.1
        c0,2.4-1.9,4.3-4.3,4.3s-4.3-1.9-4.3-4.3s1.9-4.3,4.3-4.3S15.4,28.8,15.4,31.1z"/>
      <path fill="#DC3031" d="M10,33c0.1,0.1,0.3,0.2,0.5,0.2s0.4-0.1,0.5-0.2l2.1-2.1c0.3-0.3,0.3-0.8,0-1.1c-0.3-0.3-0.8-0.3-1.1,0
        l-1.6,1.6L10,30.8c-0.3-0.3-0.8-0.3-1.1,0c-0.3,0.3-0.3,0.8,0,1.1L10,33z"/>
      <path fill="#DC3031" d="M11.1,52.2c3.3,0,5.9-2.7,5.9-5.9c0-3.3-2.7-5.9-5.9-5.9S5.2,43,5.2,46.3S7.8,52.2,11.1,52.2z M15.4,46.3
        c0,2.4-1.9,4.3-4.3,4.3s-4.3-1.9-4.3-4.3c0-2.4,1.9-4.3,4.3-4.3S15.4,43.9,15.4,46.3z"/>
      <path fill="#DC3031" d="M10,48.2c0.1,0.1,0.3,0.2,0.5,0.2c0.2,0,0.4-0.1,0.5-0.2l2.1-2.1c0.3-0.3,0.3-0.8,0-1.1
        c-0.3-0.3-0.8-0.3-1.1,0l-1.6,1.6L10,45.9c-0.3-0.3-0.8-0.3-1.1,0c-0.3,0.3-0.3,0.8,0,1.1L10,48.2z"/>
      <path fill="#DC3031" d="M52.4,70H6c-0.5,0-0.9,0.4-0.9,0.9s0.4,0.9,0.9,0.9h46.5c0.5,0,0.9-0.4,0.9-0.9S52.9,70,52.4,70z"/>
      <path fill="#DC3031" d="M79.1,25.2H58.2V11.6c0-0.5-0.3-0.9-0.8-0.9H44.6V5.2c0-0.5-0.3-0.8-0.8-0.8h-9.8c-0.3-2.6-2.4-4.4-5-4.4
        c-2.5,0-4.7,1.8-5,4.4h-9.7c-0.5,0-0.9,0.3-0.9,0.8v5.5H0.8c-0.5,0-0.8,0.4-0.8,0.9v67.5C0,79.6,0.4,80,0.8,80h56.6
        c0.5,0,0.8-0.4,0.8-0.9V66.7h20.9c0.5,0,0.9-0.4,0.9-0.9V26C80,25.6,79.6,25.2,79.1,25.2z M78.3,65H52.4H34.6V26.9h17.9h25.9V65z
        M1.7,78.3V12.4h11.9v5.4c0,0.5,0.4,0.8,0.9,0.8h29.4c0.5,0,0.8-0.3,0.8-0.8v-5.4h12.1v12.8h-4.3H33.7H21.3c-0.5,0-0.9,0.4-0.9,0.9
        s0.4,0.9,0.9,0.9h11.6v3.2H21.3c-0.5,0-0.9,0.4-0.9,0.9c0,0.5,0.4,0.9,0.9,0.9h11.6v3.2H21.3c-0.5,0-0.9,0.4-0.9,0.9
        c0,0.5,0.4,0.9,0.9,0.9h11.6v3.4H21.3c-0.5,0-0.9,0.4-0.9,0.9c0,0.5,0.4,0.9,0.9,0.9h11.6v3.2H21.3c-0.5,0-0.9,0.4-0.9,0.9
        c0,0.5,0.4,0.9,0.9,0.9h11.6V50H21.3c-0.5,0-0.9,0.4-0.9,0.9s0.4,0.9,0.9,0.9h11.6V55H6c-0.5,0-0.9,0.4-0.9,0.9s0.4,0.9,0.9,0.9
        h26.9v3.4H6c-0.5,0-0.9,0.4-0.9,0.9s0.4,0.9,0.9,0.9h26.9V65H6c-0.5,0-0.9,0.4-0.9,0.9s0.4,0.9,0.9,0.9h27.7h18.7h4.3v11.6H1.7z
        M25.7,5c0-1.9,1.5-3.4,3.4-3.4c1.9,0,3.4,1.5,3.4,3.4S31,8.4,29.1,8.4C27.2,8.4,25.7,6.9,25.7,5z M24.2,6c0.5,2.4,2.5,4,4.9,4
        c2.4,0,4.4-1.6,4.9-4h9V17H15.3V6H24.2z"/>
      <path fill="#DC3031" d="M38.9,40.5c0.1,0,0.2,0.1,0.3,0.1c0.3,0,0.6-0.2,0.8-0.5c1.2-3.2,3.4-5.9,6.2-7.9c0.4-0.3,0.5-0.8,0.2-1.1
        c-0.3-0.4-0.8-0.5-1.1-0.2c-3.1,2.2-5.4,5.1-6.8,8.6C38.2,39.9,38.4,40.3,38.9,40.5z"/>
      <path fill="#DC3031" d="M56.3,32.5c-7.6,0-13.8,6.2-13.8,13.8c0,4.1,1.8,7.8,4.6,10.3l-2,3.4c-0.2,0.4-0.1,0.9,0.3,1.1
        c0.1,0.1,0.3,0.1,0.4,0.1c0.3,0,0.6-0.1,0.7-0.4l1.8-3.2c2.2,1.6,4.9,2.5,7.9,2.5c2.8,0,5.4-0.8,7.6-2.3l1.7,3
        c0.2,0.3,0.4,0.4,0.7,0.4c0.1,0,0.3,0,0.4-0.1c0.4-0.2,0.5-0.7,0.3-1.1l-1.8-3.2c3-2.5,4.8-6.3,4.8-10.5
        C70.1,38.7,63.9,32.5,56.3,32.5z M56.3,58.4c-6.7,0-12.1-5.4-12.1-12.1s5.4-12.1,12.1-12.1s12.1,5.4,12.1,12.1S63,58.4,56.3,58.4z"
        />
      <path fill="#DC3031" d="M66.6,32.1c2.8,2,5,4.7,6.2,7.9c0.1,0.3,0.4,0.5,0.8,0.5c0.1,0,0.2,0,0.3-0.1c0.4-0.2,0.6-0.6,0.5-1.1
        c-1.4-3.5-3.7-6.5-6.8-8.6c-0.4-0.3-0.9-0.2-1.1,0.2C66.2,31.4,66.3,31.9,66.6,32.1z"/>
      <path fill="#DC3031" d="M63.8,45.8H57v-6.6c0-0.5-0.4-0.9-0.9-0.9s-0.9,0.4-0.9,0.9v7.5c0,0.5,0.4,0.9,0.9,0.9h7.7
        c0.5,0,0.9-0.4,0.9-0.9C64.7,46.2,64.3,45.8,63.8,45.8z"/>
    </symbol>

    <symbol id="qs-search" viewBox="0 0 80 80">
      <path fill="#DC3031" d="M56.3,50.6H26.8c-0.5,0-0.9,0.4-0.9,0.9s0.4,0.9,0.9,0.9h29.5c0.5,0,0.9-0.4,0.9-0.9S56.8,50.6,56.3,50.6z"
      />
      <path fill="#DC3031" d="M56.3,55.7H6.1c-0.5,0-0.9,0.4-0.9,0.9s0.4,0.9,0.9,0.9h50.1c0.5,0,0.9-0.4,0.9-0.9S56.8,55.7,56.3,55.7z"
      />
      <path fill="#DC3031" d="M56.3,60.8H6.1c-0.5,0-0.9,0.4-0.9,0.9s0.4,0.9,0.9,0.9h50.1c0.5,0,0.9-0.4,0.9-0.9S56.8,60.8,56.3,60.8z"
      />
      <path fill="#DC3031" d="M56.3,65.9H6.1c-0.5,0-0.9,0.4-0.9,0.9s0.4,0.9,0.9,0.9h50.1c0.5,0,0.9-0.4,0.9-0.9S56.8,65.9,56.3,65.9z"
      />
      <path fill="#DC3031" d="M56.3,45.4H26.8c-0.5,0-0.9,0.4-0.9,0.9s0.4,0.9,0.9,0.9h29.5c0.5,0,0.9-0.4,0.9-0.9S56.8,45.4,56.3,45.4z"
      />
      <path fill="#DC3031" d="M56.3,71H6.1c-0.5,0-0.9,0.4-0.9,0.9c0,0.5,0.4,0.9,0.9,0.9h50.1c0.5,0,0.9-0.4,0.9-0.9
        C57.1,71.4,56.8,71,56.3,71z"/>
      <path fill="#DC3031" d="M22.5,36.3c0-0.5-0.4-0.9-0.9-0.9H6.1c-0.5,0-0.9,0.4-0.9,0.9v15.5c0,0.5,0.4,0.9,0.9,0.9h15.5
        c0.5,0,0.9-0.4,0.9-0.9L22.5,36.3L22.5,36.3z M7,37.1h13.8v13.8H7V37.1z"/>
      <path fill="#DC3031" d="M79.8,50.9L65.6,36.5c7.2-8.7,6.7-21.7-1.4-29.9C60,2.3,54.3,0.1,48.7,0.1c-5.5,0-10.9,2.1-15.2,6.2H1
        c-0.5,0-0.8,0.4-0.8,0.8v72.1C0.2,79.8,0.5,80,1,80h60.6c0.5,0,0.9-0.2,0.9-0.7V39.6c0.7-0.5,1.2-1,1.8-1.6
        c0.1-0.1,0.2-0.2,0.2-0.2L78.6,52c0.2,0.2,0.4,0.3,0.6,0.3c0.2,0,0.4-0.1,0.6-0.2C80.1,51.7,80.1,51.2,79.8,50.9z M1.9,78.3V8H32
        c-1.6,1.9-2.8,4-3.7,6.2c0,0.1-0.1,0.2-0.1,0.3c-0.3,0.9-0.6,1.9-0.8,2.7H6.7c-0.5,0-0.9,0.3-0.9,0.8v8.5c0,0.5,0.4,0.9,0.9,0.9
        h20.7c0.7,2.9,1.9,5.6,3.6,8h-4.2c-0.5,0-0.9,0.4-0.9,0.9s0.4,0.9,0.9,0.9h5.6c0.3,0.3,0.5,0.6,0.8,0.9c0.9,0.9,1.8,1.7,2.8,2.4
        h-9.2c-0.5,0-0.9,0.4-0.9,0.9c0,0.5,0.4,0.9,0.9,0.9h12.1c3.1,1.7,6.5,2.4,9.9,2.4c4.2,0,8.5-1.2,12-3.6v37.4H1.9z M47.1,15.5h12.7
        h0.8v13.6h-0.8H47.1V15.5z M45.4,29.1H29.6c-1.5-4.4-1.5-9.2,0-13.6h15.8V29.1z M27,25.7H7.5v-6.8h19.6
        C26.7,21.1,26.7,23.5,27,25.7z M48.7,42.8c-5.4,0-10.5-2.1-14.3-6c-1.8-1.8-3.2-3.8-4.1-6h15.9h14.5h0.8c0.5,0,0.8-0.5,0.8-0.9
        V14.6c0-0.5-0.4-0.8-0.8-0.8h-0.8H46.2H30.3c1-2.2,2.3-4.2,4.1-6c3.8-3.9,8.9-6,14.3-6S59.2,4,63,7.8c7.9,8,7.9,21,0,29
        C59.2,40.7,54.1,42.8,48.7,42.8z"/>
      <path fill="#DC3031" d="M53.3,18.3c-0.3-0.3-0.9-0.3-1.2,0c-0.3,0.3-0.3,0.9,0,1.2l3,3l-3,3c-0.3,0.3-0.3,0.9,0,1.2
        c0.2,0.2,0.4,0.2,0.6,0.2c0.2,0,0.4-0.1,0.6-0.2l3.6-3.6c0.3-0.3,0.3-0.9,0-1.2L53.3,18.3z"/>
    </symbol>

    <symbol id="app-admin" viewBox="0 0 470 470">
      <path d="M465,278c2.762,0,5-2.451,5-5.212v-268C470,2.026,467.762,0,465,0H195c-2.762,0-5,2.026-5,4.788V180H64.322
        C52.04,180,42,190.255,42,202.661V420H9.934C4.405,420,0,424.833,0,430.362v12.886c0,2.588,0.458,7.673,3.789,11.368
        C7.905,459.183,19.079,470,34.245,470h401.378c15.166,0,26.406-10.817,30.522-15.385c3.33-3.695,3.855-8.78,3.855-11.368v-12.886
        c0-5.529-4.537-10.362-10.066-10.362H427V278H465z M460,443.248c0,1.889-0.519,3.82-1.286,4.671
        C455.581,451.395,446.814,460,435.623,460c-39.278,0-362.139,0-401.378,0c-11.192,0-19.892-8.605-23.025-12.081
        c-0.768-0.852-1.22-2.78-1.22-4.671V430c19,0,438,0,450,0V443.248z M52,420c0-62.42,0-217.339,0-217.339
        C52,195.758,57.543,190,64.322,190c7.185,0,62.024,0,125.678,0v41H72.781c-0.459,0-0.781,0.076-0.781,0.434v168.697
        c0,0.358,0.321,0.869,0.781,0.869h323.33c0.459,0,0.889-0.51,0.889-0.869V278h20c0,48,0,107.008,0,142H52z M460,10v258H200V10H460z
        M195,278h192v113H82V241h108v31.788C190,275.549,192.238,278,195,278z"/>
      <path d="M225.774,159.363l20.354,5.147c1.799,5.776,3.863,10.825,6.255,15.298l-10.764,18.194c-1.161,1.964-0.847,4.465,0.767,6.08
        l22.894,22.915c1.62,1.623,4.138,1.934,6.105,0.756l18.154-10.871c5.159,2.755,10.271,4.964,15.256,6.591l5.343,20.773
        c0.568,2.209,2.562,3.754,4.843,3.754h32.01c2.297,0,4.298-1.564,4.853-3.793L357,223.479c5.479-1.741,10.606-3.904,15.304-6.456
        l18.19,10.667c1.97,1.154,4.464,0.83,6.071-0.784l22.914-22.999c1.615-1.621,1.924-4.131,0.749-6.095l-10.878-18.19
        c2.587-4.908,4.776-10.094,6.438-15.25l20.437-5.161c2.22-0.561,3.775-2.558,3.775-4.848V122c0-2.294-1.562-4.294-3.787-4.851
        l-20.62-5.154c-1.757-5.569-3.895-10.695-6.38-15.3l10.705-18.192c1.155-1.964,0.837-4.461-0.775-6.072l-22.928-22.914
        c-1.621-1.62-4.135-1.931-6.102-0.754l-18.201,10.89c-4.339-2.212-9.286-4.15-15.226-5.969l-4.998-19.901
        c-0.559-2.224-2.558-3.782-4.85-3.782h-32.365c-2.285,0-4.279,1.549-4.845,3.762l-5.141,20.123
        c-5.975,1.839-10.944,3.834-15.296,6.143l-18.196-10.817c-1.966-1.169-4.47-0.854-6.086,0.758l-22.762,22.711
        c-1.628,1.624-1.938,4.147-0.753,6.117l10.924,18.156c-2.384,4.602-4.456,9.699-6.186,15.214l-20.357,5.137
        c-2.221,0.561-3.776,2.558-3.776,4.848v32.363C222,156.805,223.555,158.802,225.774,159.363z M232,126.047l19.332-4.878
        c1.729-0.437,3.094-1.76,3.584-3.474c1.976-6.914,4.502-13.105,7.509-18.404c0.891-1.57,0.866-3.499-0.064-5.045l-10.379-17.25
        l17.243-17.205L286.565,70.1c1.574,0.937,3.534,0.937,5.11,0c4.821-2.867,10.646-5.225,18.328-7.42
        c1.709-0.488,3.03-1.848,3.471-3.57L318.357,40h24.582l4.743,18.887c0.435,1.731,1.76,3.1,3.477,3.59
        c7.701,2.2,13.554,4.511,18.418,7.271c1.566,0.889,3.49,0.868,5.035-0.058l17.291-10.345l17.433,17.422l-10.205,17.343
        c-0.925,1.572-0.92,3.523,0.012,5.091c3.113,5.234,5.694,11.4,7.673,18.327c0.49,1.719,1.861,3.044,3.595,3.478l19.59,4.896v24.565
        l-19.398,4.899c-1.729,0.437-3.094,1.76-3.583,3.475c-1.776,6.218-4.465,12.589-7.776,18.423c-0.889,1.566-0.867,3.489,0.058,5.034
        l10.35,17.306l-17.436,17.5l-17.341-10.168c-1.572-0.921-3.521-0.917-5.085,0.016c-5.405,3.214-11.571,5.823-18.328,7.753
        c-1.72,0.492-3.046,1.865-3.479,3.601L343.083,238h-24.225l-5.075-19.732c-0.442-1.719-1.763-3.074-3.469-3.562
        c-5.912-1.689-12.106-4.36-18.411-7.938c-1.567-0.89-3.492-0.867-5.036,0.059l-17.271,10.342l-17.396-17.411l10.26-17.342
        c0.931-1.573,0.929-3.529-0.006-5.101c-2.982-5.017-5.448-11.012-7.539-18.329c-0.489-1.714-1.854-3.037-3.582-3.474L232,150.623
        V126.047z"/>
      <path d="M330.731,189.972c28.517,0,51.716-23.2,51.716-51.716S359.248,86.54,330.731,86.54s-51.717,23.2-51.717,51.716
        S302.215,189.972,330.731,189.972z M372.447,138.256c0,23.002-18.714,41.716-41.716,41.716c-23.003,0-41.717-18.714-41.717-41.716
        s18.714-41.716,41.717-41.716C353.733,96.54,372.447,115.253,372.447,138.256z"/>
    </symbol>

    <symbol id="app-quickstart" viewBox="0 0 470 470">
      <path d="M65.018,217.664c19.144,0,34.719-15.575,34.719-34.719s-15.575-34.719-34.719-34.719s-34.719,15.575-34.719,34.719
        S45.874,217.664,65.018,217.664z M90.335,182.945c0,13.96-11.357,25.317-25.317,25.317s-25.317-11.357-25.317-25.317
        s11.357-25.317,25.317-25.317S90.335,168.985,90.335,182.945z"/>
      <path d="M58.956,193.931c0.844,0.844,1.989,1.318,3.182,1.318s2.338-0.474,3.182-1.318l12.375-12.375
        c1.757-1.757,1.757-4.607,0-6.364c-1.758-1.757-4.606-1.757-6.364,0l-9.192,9.192l-3.535-3.535c-1.757-1.757-4.606-1.758-6.364,0
        c-1.758,1.757-1.758,4.606,0,6.364L58.956,193.931z"/>
      <path d="M65.018,306.737c19.144,0,34.719-15.575,34.719-34.719s-15.575-34.719-34.719-34.719s-34.719,15.575-34.719,34.719
        S45.874,306.737,65.018,306.737z M90.335,272.018c0,13.96-11.357,25.317-25.317,25.317s-25.317-11.357-25.317-25.317
        s11.357-25.317,25.317-25.317S90.335,258.058,90.335,272.018z"/>
      <path d="M59.007,282.953c0.879,0.878,2.03,1.318,3.182,1.318c1.151,0,2.303-0.439,3.182-1.318l12.375-12.374
        c1.757-1.757,1.757-4.606,0-6.364c-1.758-1.756-4.606-1.757-6.364,0l-9.192,9.192l-3.535-3.536c-1.758-1.757-4.606-1.757-6.364,0
        c-1.757,1.757-1.757,4.607,0,6.364L59.007,282.953z"/>
      <path d="M308,411H35c-2.761,0-5,2.239-5,5s2.239,5,5,5h273c2.762,0,5-2.239,5-5S310.762,411,308,411z"/>
      <path d="M465,148H342V68.212c0-2.667-1.755-5.212-4.423-5.212H262V30.635c0-2.667-1.836-4.635-4.504-4.635h-57.292
        c-1.852-15-14.246-25.713-29.222-25.713C156.005,0.287,143.611,11,141.759,26H85.014C82.346,26,80,27.968,80,30.635V63H4.933
        C2.265,63,0,65.544,0,68.212v396.542C0,467.421,2.265,470,4.933,470h332.645c2.668,0,4.423-2.579,4.423-5.247V392h123
        c2.762,0,5-2.239,5-5V153C470,150.239,467.762,148,465,148z M460,382H308H203V158h105h152V382z M10,460V73h70v31.556
        c0,2.667,2.346,4.444,5.014,4.444h172.482c2.668,0,4.504-1.776,4.504-4.444V73h71v75h-25H198h-73c-2.761,0-5,2.239-5,5s2.239,5,5,5
        h68v19h-68c-2.761,0-5,2.239-5,5s2.239,5,5,5h68v19h-68c-2.761,0-5,2.239-5,5s2.239,5,5,5h68v20h-68c-2.761,0-5,2.239-5,5
        s2.239,5,5,5h68v19h-68c-2.761,0-5,2.239-5,5s2.239,5,5,5h68v19h-68c-2.761,0-5,2.239-5,5s2.239,5,5,5h68v19H35
        c-2.761,0-5,2.239-5,5s2.239,5,5,5h158v20H35c-2.761,0-5,2.239-5,5s2.239,5,5,5h158v19H35c-2.761,0-5,2.239-5,5s2.239,5,5,5h163
        h110h25v68H10z M151.171,29.562c0-10.923,8.887-19.81,19.811-19.81s19.81,8.887,19.81,19.81s-8.887,19.811-19.81,19.811
        S151.171,40.485,151.171,29.562z M142.106,35c2.742,14,14.647,23.567,28.876,23.567c14.229,0,26.134-9.567,28.876-23.567H253v65H90
        V35H142.106z"/>
      <path d="M228.247,237.979c0.576,0.224,1.168,0.331,1.752,0.331c1.933,0,3.758-1.169,4.502-3.079
        c7.299-18.741,19.912-34.774,36.472-46.365c2.186-1.529,2.718-4.541,1.188-6.727c-1.53-2.187-4.544-2.717-6.727-1.188
        c-18.131,12.689-31.94,30.247-39.935,50.773C224.531,234.211,225.761,237.011,228.247,237.979z"/>
      <path d="M330.991,190.893c-44.643,0-80.962,36.319-80.962,80.962c0,23.983,10.492,45.554,27.116,60.392l-11.519,19.929
        c-1.335,2.31-0.545,5.264,1.765,6.599c0.761,0.44,1.592,0.649,2.412,0.649c1.669,0,3.292-0.866,4.187-2.414l10.817-18.715
        c13.11,9.141,29.026,14.521,46.185,14.521c16.527,0,31.907-4.988,44.732-13.523l10.241,17.717c0.895,1.548,2.518,2.414,4.187,2.414
        c0.82,0,1.651-0.209,2.412-0.649c2.31-1.335,3.1-4.29,1.765-6.599l-10.842-18.757c17.403-14.861,28.468-36.938,28.468-61.564
        C411.953,227.212,375.634,190.893,330.991,190.893z M330.991,343.157c-39.315,0-71.302-31.986-71.302-71.302
        s31.986-71.302,71.302-71.302s71.302,31.986,71.302,71.302S370.307,343.157,330.991,343.157z"/>
      <path d="M391.561,188.866c16.562,11.592,29.173,27.625,36.472,46.365c0.744,1.91,2.569,3.079,4.502,3.079
        c0.583,0,1.176-0.106,1.752-0.331c2.485-0.968,3.716-3.768,2.748-6.254c-7.994-20.526-21.803-38.083-39.935-50.773
        c-2.183-1.528-5.196-0.998-6.727,1.188C388.843,184.325,389.375,187.336,391.561,188.866z"/>
      <path d="M375,269h-40v-39c0-2.761-2.238-5-5-5s-5,2.239-5,5v44c0,2.761,2.238,5,5,5h45c2.762,0,5-2.239,5-5S377.762,269,375,269z"/>
    </symbol>

    <symbol id="app-rwb" viewBox="0 0 470 470">
      <path d="M152,97h94c2.762,0,5-2.239,5-5s-2.238-5-5-5h-94c-2.762,0-5,2.239-5,5S149.238,97,152,97z"/>
      <path d="M36.107,157h86.275c1.608,0,3.095-1.108,3.898-2.502s0.802-3.235-0.004-4.627L91.481,89.501
        C90.677,88.111,89.192,87,87.587,87c-0.001,0-0.003,0-0.004,0c-1.607,0-3.092,1.053-3.895,2.445l-8.037,14.035l-4.441-7.637
        c-0.804-1.391-2.288-2.223-3.894-2.224c-1.618-0.008-3.092,0.866-3.896,2.256l-31.206,53.863c-0.807,1.392-0.809,3.362-0.005,4.756
        C33.012,155.888,34.498,157,36.107,157z M67.309,107.377l4.45,7.538c0.805,1.392,2.289,2.085,3.896,2.085c0.001,0,0.001,0,0.002,0
        c1.608,0,3.093-0.821,3.896-2.213l8.041-13.674L114.578,148H43.916L67.309,107.377z"/>
      <path d="M392,213H287c-2.762,0-5,2.239-5,5s2.238,5,5,5h105c2.762,0,5-2.239,5-5S394.762,213,392,213z"/>
      <path d="M392,243H287c-2.762,0-5,2.239-5,5s2.238,5,5,5h105c2.762,0,5-2.239,5-5S394.762,243,392,243z"/>
      <path d="M392,273H287c-2.762,0-5,2.239-5,5s2.238,5,5,5h105c2.762,0,5-2.239,5-5S394.762,273,392,273z"/>
      <path d="M392,302H171c-2.762,0-5,2.239-5,5s2.238,5,5,5h221c2.762,0,5-2.239,5-5S394.762,302,392,302z"/>
      <path d="M392,331H171c-2.762,0-5,2.239-5,5s2.238,5,5,5h221c2.762,0,5-2.239,5-5S394.762,331,392,331z"/>
      <path d="M392,361H171c-2.762,0-5,2.239-5,5s2.238,5,5,5h221c2.762,0,5-2.239,5-5S394.762,361,392,361z"/>
      <path d="M392,391H171c-2.762,0-5,2.239-5,5s2.238,5,5,5h221c2.762,0,5-2.239,5-5S394.762,391,392,391z"/>
      <path d="M166.668,280.497c0.893,1.549,2.544,2.503,4.332,2.503h85.755c1.787,0,3.438-0.954,4.331-2.502
        c0.894-1.548,0.892-3.456-0.004-5.002l-34.586-59.875c-0.894-1.544-2.543-2.62-4.327-2.62c-0.001,0-0.003,0-0.004,0
        c-1.786,0-3.436,1.08-4.327,2.627l-7.534,13.126l-3.957-7.051c-0.893-1.545-2.542-2.701-4.326-2.701c-0.001,0-0.002,0-0.003,0
        c-1.783,0-3.432,1.184-4.326,2.727l-31.018,53.649C165.777,276.923,165.775,278.948,166.668,280.497z M202.012,234.452l3.968,6.958
        c0.894,1.546,2.543,2.591,4.329,2.591c0.001,0,0.002,0,0.002,0c1.787,0,3.437-1.047,4.329-2.594l7.537-13.116L248.083,273h-68.407
        L202.012,234.452z"/>
      <path d="M470.003,136.955c0-26.167-21.358-47.456-47.525-47.456c-19.041,0-35.558,11.278-43.11,27.5H281V4.939
        C281,2.178,278.486,0,275.725,0h-210c-1.281,0-2.515,0.462-3.443,1.344L2.419,58.33C1.425,59.274,1,60.569,1,61.939v268
        C1,332.7,2.963,335,5.725,335H135v129.868c0,2.761,2.724,5.132,5.485,5.132h282.239c2.762,0,5.275-2.371,5.275-5.132V184.106
        C451,181.454,470.003,161.325,470.003,136.955z M145,188h58.205c2.762,0,4.795-2.474,4.795-5.235V127h38h130.012
        c-0.688,3.212-0.921,6.54-0.921,9.955c0,24.587,18.909,44.862,42.909,47.223V460H145V188z M61,16.585V57H18.248L61,16.585z M11,67
        h54.725C68.486,67,71,64.7,71,61.939V10h200v107h-25h-42.794H152c-2.762,0-5,2.239-5,5s2.238,5,5,5h38.704l-21.005,20H154
        c-2.762,0-5,2.239-5,5s2.238,5,5,5h5.196l-21.005,20H36c-2.762,0-5,2.239-5,5s2.238,5,5,5h99v20H36c-2.762,0-5,2.239-5,5
        s2.238,5,5,5h99v20H36c-2.762,0-5,2.239-5,5s2.238,5,5,5h99v20H36c-2.762,0-5,2.239-5,5s2.238,5,5,5h99v48H11V67z M151.89,178
        L198,133.666V178H151.89z M422.409,174.411c-20.653,0-37.456-16.803-37.456-37.456c0-20.653,16.803-37.456,37.456-37.456
        s37.456,16.803,37.456,37.456C459.865,157.608,443.062,174.411,422.409,174.411z"/>
      <path d="M443.582,130.419c1.953-1.953,1.953-5.119,0-7.071c-1.951-1.952-5.119-1.952-7.07,0l-18.23,18.229l-9.974-9.974
        c-1.951-1.952-5.119-1.952-7.07,0c-1.953,1.953-1.953,5.119,0,7.071l13.509,13.509c0.938,0.938,2.209,1.464,3.535,1.464
        s2.598-0.527,3.535-1.464L443.582,130.419z"/>
    </symbol>

    <symbol id="app-search" viewBox="0 0 470 470">
      <path d="M330.678,297H157.321c-2.767,0-5.01,2.233-5.01,5s2.243,5,5.01,5h173.356c2.767,0,5.01-2.233,5.01-5
        S333.445,297,330.678,297z"/>
      <path d="M330.678,327H36.072c-2.767,0-5.01,2.233-5.01,5s2.243,5,5.01,5h294.606c2.767,0,5.01-2.233,5.01-5
        S333.445,327,330.678,327z"/>
      <path d="M330.678,357H36.072c-2.767,0-5.01,2.233-5.01,5s2.243,5,5.01,5h294.606c2.767,0,5.01-2.233,5.01-5
        S333.445,357,330.678,357z"/>
      <path d="M330.678,387H36.072c-2.767,0-5.01,2.233-5.01,5s2.243,5,5.01,5h294.606c2.767,0,5.01-2.233,5.01-5
        S333.445,387,330.678,387z"/>
      <path d="M330.678,267H157.321c-2.767,0-5.01,2.233-5.01,5s2.243,5,5.01,5h173.356c2.767,0,5.01-2.233,5.01-5
        S333.445,267,330.678,267z"/>
      <path d="M330.678,417H36.072c-2.767,0-5.01,2.233-5.01,5s2.243,5,5.01,5h294.606c2.767,0,5.01-2.233,5.01-5
        S333.445,417,330.678,417z"/>
      <path d="M132,213.01c0-2.767-2.243-5.01-5.01-5.01H36.01c-2.767,0-5.01,2.243-5.01,5.01v90.979c0,2.767,2.243,5.01,5.01,5.01
        h90.979c2.767,0,5.01-2.243,5.01-5.01V213.01z M41,218h81v81H41V218z"/>
      <path d="M468.667,298.75l-83.203-84.474c42.1-51.225,39.418-127.407-8.064-175.441c-25.167-25.46-58.153-38.146-91.138-38.146
        C254.119,0.688,221.98,13,197.071,37H5.771C3.003,37,1,39.157,1,41.924v423.872C1,468.562,3.003,470,5.771,470h356.074
        c2.767,0,5.156-1.438,5.156-4.205V232.79c4-2.96,7.094-6.141,10.473-9.559c0.472-0.478,0.895-0.963,1.358-1.446l82.715,83.998
        c0.981,0.995,2.266,1.494,3.561,1.494c1.269,0,2.536-0.479,3.511-1.441C470.589,303.894,470.609,300.721,468.667,298.75z M11,460
        V47h176.768c-9.272,11-16.42,23.338-21.448,36.272c-0.258,0.455-0.463,1.114-0.569,1.643C163.795,90.129,162.186,96,160.915,101
        H39.078c-2.767,0-5.078,1.866-5.078,4.633v50.103c0,2.767,2.311,5.264,5.078,5.264h121.678c3.848,17,10.979,33,21.408,47h-24.843
        c-2.767,0-5.01,2.233-5.01,5s2.243,5,5.01,5h32.881c1.585,2,3.222,3.347,4.921,5.067c5.196,5.257,10.73,9.933,16.524,13.933
        h-54.327c-2.783,0-5.04,2.217-5.04,5s2.257,5,5.04,5h70.826c18.22,10,38.249,14.199,58.198,14.199
        c24.607,0,49.655-6.867,70.655-21.035V460H11z M277,91h74.57H356v80h-4.43H277V91z M267,171h-93.022c-8.808-26-8.71-54,0.293-80
        H267V171z M158.852,151H44v-40h114.959C156.893,124,156.857,138,158.852,151z M286.262,251.4c-31.729,0-61.565-12.273-84.012-34.98
        C191.766,205.812,183.658,194,177.91,181h93.291h85.38h4.449c2.767,0,4.971-2.71,4.971-5.477V85.695
        c0-2.767-2.203-4.695-4.971-4.695h-4.449h-85.38h-92.916c5.724-13,13.709-24.588,23.966-34.964
        c22.447-22.708,52.283-35.293,84.012-35.293s61.565,12.466,84.012,35.174c46.414,46.954,46.414,123.334,0,170.288
        C347.827,238.914,317.991,251.4,286.262,251.4z"/>
      <path d="M313.177,107.695c-1.955-1.956-5.13-1.956-7.085,0c-1.957,1.957-1.957,5.129,0,7.086l17.713,17.714l-17.713,17.714
        c-1.957,1.957-1.957,5.129,0,7.086c0.978,0.978,2.26,1.467,3.542,1.467c1.282,0,2.565-0.489,3.542-1.467l21.257-21.257
        c1.957-1.957,1.957-5.129,0-7.086L313.177,107.695z"/>
    </symbol>

    <symbol id="app-silk" viewBox="0 0 470 470">
      <!-- <path style="fill:none;" d="M188,129v-24c0-2.761,2.238-5,5-5h237V10H10v119H188z"/>
      <path d="M163,260h-49c-2.762,0-5,2.239-5,5v169c0,2.761,2.238,5,5,5h49c2.762,0,5-2.239,5-5V265C168,262.239,165.762,260,163,260z
        M158,429h-39V270h39V429z"/>
      <path d="M84,169H35c-2.762,0-5,2.239-5,5v260c0,2.761,2.238,5,5,5h49c2.762,0,5-2.239,5-5V174C89,171.239,86.762,169,84,169z
        M79,429H40V179h39V429z"/>
      <path d="M470,105c0-2.761-2.238-5-5-5h-25V5c0-2.761-2.238-5-5-5H5C2.238,0,0,2.239,0,5v129v12v319c0,2.761,2.238,5,5,5h188h239h33
        c2.762,0,5-2.239,5-5V197c0-0.171-0.034-0.333-0.05-0.5c0.017-0.167,0.05-0.329,0.05-0.5V105z M460,460h-33H198V202h262V460z
        M460,191H198v-81h262V191z M10,141v-2h178v57c0,0.171,0.034,0.333,0.05,0.5c-0.017,0.167-0.05,0.329-0.05,0.5v263H10V141z M430,10
        v90H193c-2.762,0-5,2.239-5,5v24H10V10H430z"/>
      <path d="M328.086,221.715c-60.15,0-109.086,48.936-109.086,109.086s48.936,109.086,109.086,109.086s109.087-48.936,109.087-109.086
        S388.236,221.715,328.086,221.715z M328.086,429.888c-54.636,0-99.086-44.45-99.086-99.086c0-52.931,41.718-96.301,94-98.957V331
        c0,2.761,2.238,5,5,5h99.037C424.324,388.229,380.979,429.888,328.086,429.888z M427.055,326H333v-94.162
        C383.772,234.33,424.619,275.214,427.055,326z"/>
      <path d="M435,130h-70c-2.762,0-5,2.239-5,5v30c0,2.761,2.238,5,5,5h70c2.762,0,5-2.239,5-5v-19v-11
        C440,132.239,437.762,130,435,130z M370,160v-20h60v1v19H370z"/> -->

      <path style="fill:none;" d="M188,129v-24c0-2.761,2.238-5,5-5h237V10H10v119H188z"/>
      <path d="M163,260h-49c-2.762,0-5,2.239-5,5v169c0,2.761,2.238,5,5,5h49c2.762,0,5-2.239,5-5V265C168,262.239,165.762,260,163,260z
        M158,429h-39V270h39V429z"/>
      <path d="M84,169H35c-2.762,0-5,2.239-5,5v260c0,2.761,2.238,5,5,5h49c2.762,0,5-2.239,5-5V174C89,171.239,86.762,169,84,169z
        M79,429H40V179h39V429z"/>
      <path d="M470,105c0-2.761-2.238-5-5-5h-25V5c0-2.761-2.238-5-5-5H5C2.238,0,0,2.239,0,5v129v12v319c0,2.761,2.238,5,5,5h188h239h33
        c2.762,0,5-2.239,5-5V197c0-0.171-0.034-0.333-0.05-0.5c0.017-0.167,0.05-0.329,0.05-0.5V105z M460,460h-33H198V202h262V460z
        M460,191H198v-81h262V191z M10,141v-2h178v57c0,0.171,0.034,0.333,0.05,0.5c-0.017,0.167-0.05,0.329-0.05,0.5v263H10V141z M430,10
        v90H193c-2.762,0-5,2.239-5,5v24H10V10H430z"/>
      <path d="M328.086,221.715c-60.15,0-109.086,48.936-109.086,109.086s48.936,109.086,109.086,109.086s109.087-48.936,109.087-109.086
        S388.236,221.715,328.086,221.715z M328.086,429.888c-54.636,0-99.086-44.45-99.086-99.086c0-52.931,41.718-96.301,94-98.957V331
        c0,2.761,2.238,5,5,5h99.037C424.324,388.229,380.979,429.888,328.086,429.888z M427.055,326H333v-94.162
        C383.772,234.33,424.619,275.214,427.055,326z"/>
      <path d="M435,130h-70c-2.762,0-5,2.239-5,5v30c0,2.761,2.238,5,5,5h70c2.762,0,5-2.239,5-5v-19v-11
        C440,132.239,437.762,130,435,130z M370,160v-20h60v1v19H370z"/>

    </symbol>

    <symbol id="quickstart" viewBox="0 0 390 190">
      <path style="fill:#FFFFFF;" d="M300.698,152.238H108.287v7.348h200.718c0-7.81,0-17.855,0-29.006h-7.735v21.112
        C301.271,151.949,301.012,152.238,300.698,152.238z"/>
      <path style="fill:#FFFFFF;" d="M301.008,7.21h-0.124c0,0-209.681,0-221.509,0c-4.416,0-7.828,3.549-7.828,8.045
        c0,0,0,12.215,0,29.855h7.735V30.785c0-0.257,0.089-0.37,0.403-0.37h221.013c0.314,0,0.573,0.113,0.573,0.37v10.459h7.735
        c0-15.553,0-25.988,0-25.988C309.006,10.759,305.424,7.21,301.008,7.21z M189.95,22.583c-2.136,0-3.867-1.731-3.867-3.868
        c0-2.136,1.731-3.867,3.867-3.867c2.136,0,3.868,1.731,3.868,3.867C193.818,20.851,192.086,22.583,189.95,22.583z"/>
      <path style="fill:#DC3031;" d="M71.547,45.11c0-17.64,0-29.855,0-29.855c0-4.497,3.412-8.045,7.828-8.045
        c11.829,0,221.509,0,221.509,0h0.124c4.416,0,7.997,3.549,7.997,8.045c0,0,0,10.435,0,25.988h3.867V15.255
        c0-6.622-5.324-11.913-11.865-11.913H79.375c-6.541,0-11.695,5.291-11.695,11.913V45.11H71.547z"/>
      <path style="fill:#DC3031;" d="M309.006,130.58c0,11.151,0,21.196,0,29.006H108.287v3.867c84.547,0,222.703,0,228.177,0v8.529
        c0,1.231-0.329,2.436-0.827,2.991c-2.036,2.265-7.726,7.818-15,7.818c-19.094,0-141.28,0-212.349,0v1.934
        c0,1.068-0.866,1.934-1.934,1.934h214.283c8.8,0,15.437-6.386,17.876-9.099c1.148-1.276,1.819-3.358,1.819-5.576v-8.394
        c0-2.136-1.757-4.002-3.893-4.002h-23.566V130.58H309.006z"/>
      <polygon style="fill:#FFFFFF;" points="83.149,34.282 83.149,47.044 83.149,57.099 90.884,57.099 90.884,41.243 250.608,41.243
        292.376,41.243 297.403,41.243 297.403,34.282 		"/>
      <polygon style="fill:#FFFFFF;" points="108.287,140.635 108.287,148.37 297.403,148.37 297.403,130.58 292.376,130.58
        292.376,140.635 		"/>
      <path style="fill:#DC3031;" d="M300.698,30.414H79.685c-0.314,0-0.403,0.113-0.403,0.37V45.11h1.934
        c1.068,0,1.934,0.866,1.934,1.934V34.282h214.254v6.961h3.867V30.785C301.271,30.528,301.012,30.414,300.698,30.414z"/>
      <path style="fill:#DC3031;" d="M108.287,148.37v3.867h192.411c0.314,0,0.573-0.289,0.573-0.546V130.58h-3.867v17.79H108.287z"/>
      <path style="fill:#FFFFFF;" d="M108.287,182.79c71.069,0,193.256,0,212.349,0c7.275,0,12.964-5.553,15-7.818
        c0.499-0.554,0.827-1.76,0.827-2.991v-8.529c-5.474,0-143.63,0-228.177,0V182.79z M155.856,171.188h61.105
        c1.068,0,1.934,0.866,1.934,1.934c0,1.068-0.866,1.934-1.934,1.934h-61.105c-1.068,0-1.934-0.866-1.934-1.934
        C153.923,172.054,154.788,171.188,155.856,171.188z"/>
      <circle style="fill:#DC3031;" cx="189.95" cy="18.715" r="3.867"/>
      <path style="fill:#DC3031;" d="M155.856,175.055h61.105c1.068,0,1.934-0.866,1.934-1.934c0-1.068-0.866-1.934-1.934-1.934h-61.105
        c-1.068,0-1.934,0.866-1.934,1.934C153.923,174.189,154.788,175.055,155.856,175.055z"/>
      <path style="fill:#F1F2F2;" d="M108.287,140.635h184.088V130.58h-41.768c-1.068,0-1.934-0.866-1.934-1.934v-34.42H108.287V140.635
        z"/>
      <path style="fill:#F1F2F2;" d="M90.884,57.099h15.47c1.068,0,1.934,0.866,1.934,1.934v19.724h140.387v-35.58
        c0-1.068,0.866-1.934,1.934-1.934H90.884V57.099z"/>
      <rect x="108.287" y="82.624" style="fill:#F1F2F2;" width="140.387" height="7.735"/>
      <rect x="108.287" y="78.757" style="fill:#FFFFFF;" width="140.387" height="3.867"/>
      <rect x="108.287" y="90.359" style="fill:#FFFFFF;" width="140.387" height="3.867"/>
      <path style="fill:#FFFFFF;" d="M104.42,60.967H83.149v9.282c0,1.068-0.866,1.934-1.934,1.934H27.072
        c-1.068,0-1.934-0.866-1.934-1.934v-9.282H3.867V182.79h55.879c6.079,0,22.638,0,44.674,0V60.967z M48.343,90.359h46.409
        c1.068,0,1.934,0.866,1.934,1.934s-0.866,1.934-1.934,1.934H48.343c-1.068,0-1.934-0.866-1.934-1.934S47.274,90.359,48.343,90.359
        z M48.343,101.961h46.409c1.068,0,1.934,0.866,1.934,1.934s-0.866,1.934-1.934,1.934H48.343c-1.068,0-1.934-0.866-1.934-1.934
        S47.274,101.961,48.343,101.961z M48.343,113.564h46.409c1.068,0,1.934,0.866,1.934,1.934s-0.866,1.934-1.934,1.934H48.343
        c-1.068,0-1.934-0.866-1.934-1.934S47.274,113.564,48.343,113.564z M25.29,90.508c7.464,0,13.536,6.072,13.536,13.536
        c0,7.464-6.072,13.536-13.536,13.536s-13.536-6.072-13.536-13.536C11.754,96.58,17.826,90.508,25.29,90.508z M13.536,125.552
        h81.215c1.068,0,1.934,0.866,1.934,1.934c0,1.068-0.866,1.934-1.934,1.934H13.536c-1.068,0-1.934-0.866-1.934-1.934
        C11.602,126.418,12.468,125.552,13.536,125.552z M13.536,137.155h81.215c1.068,0,1.934,0.866,1.934,1.934
        c0,1.068-0.866,1.934-1.934,1.934H13.536c-1.068,0-1.934-0.866-1.934-1.934C11.602,138.021,12.468,137.155,13.536,137.155z
        M13.536,148.757h81.215c1.068,0,1.934,0.866,1.934,1.934c0,1.068-0.866,1.934-1.934,1.934H13.536
        c-1.068,0-1.934-0.866-1.934-1.934C11.602,149.623,12.468,148.757,13.536,148.757z M13.536,164.227
        c-1.068,0-1.934-0.866-1.934-1.934c0-1.068,0.866-1.934,1.934-1.934h81.215c1.068,0,1.934,0.866,1.934,1.934
        c0,1.068-0.866,1.934-1.934,1.934H13.536z"/>
      <path style="fill:#5A0026;" d="M108.287,184.724v-1.934v-19.337v-3.867v-7.348v-3.867v-7.735V94.227v-3.867v-7.735v-3.867V59.033
        c0-1.068-0.866-1.934-1.934-1.934h-15.47h-7.735V47.044c0-1.068-0.866-1.934-1.934-1.934h-1.934h-7.735H67.68h-3.902
        c0.092,0.534,0.142,1.082,0.142,1.642c0,0.766-0.092,1.511-0.261,2.226h15.624v19.337H29.006V48.978h15.838
        c-0.169-0.715-0.261-1.46-0.261-2.226c0-0.56,0.05-1.108,0.142-1.642H27.072c-1.068,0-1.934,0.866-1.934,1.934v10.055H1.934
        C0.866,57.099,0,57.965,0,59.033v125.691c0,1.068,0.866,1.934,1.934,1.934h57.813h46.607
        C107.422,186.657,108.287,185.792,108.287,184.724z M3.867,182.79V60.967h21.271v9.282c0,1.068,0.866,1.934,1.934,1.934h54.144
        c1.068,0,1.934-0.866,1.934-1.934v-9.282h21.271V182.79c-22.036,0-38.594,0-44.674,0H3.867z"/>
      <path style="fill:#FFFFFF;" d="M54.251,56.421c-4.565,0-8.399-3.181-9.407-7.443H29.006v19.337h50.276V48.978H63.658
        C62.65,53.239,58.816,56.421,54.251,56.421z"/>
      <path style="fill:#FFFFFF;" d="M48.45,46.752c0,3.199,2.602,5.801,5.801,5.801c3.199,0,5.801-2.602,5.801-5.801
        c0-3.199-2.602-5.801-5.801-5.801C51.052,40.951,48.45,43.553,48.45,46.752z"/>
      <path style="fill:#DC3031;" d="M44.844,48.978c1.008,4.261,4.842,7.443,9.407,7.443s8.399-3.181,9.407-7.443
        c0.169-0.715,0.261-1.46,0.261-2.226c0-0.56-0.05-1.108-0.142-1.642c-0.782-4.552-4.755-8.027-9.526-8.027
        s-8.744,3.475-9.526,8.027c-0.092,0.534-0.142,1.082-0.142,1.642C44.582,47.518,44.675,48.263,44.844,48.978z M60.052,46.752
        c0,3.199-2.602,5.801-5.801,5.801c-3.199,0-5.801-2.602-5.801-5.801c0-3.199,2.602-5.801,5.801-5.801
        C57.45,40.951,60.052,43.553,60.052,46.752z"/>
      <path style="fill:#FFFFFF;" d="M25.29,113.712c5.331,0,9.669-4.337,9.669-9.669s-4.337-9.669-9.669-9.669
        s-9.669,4.337-9.669,9.669S19.959,113.712,25.29,113.712z M19.103,102.18c0.755-0.755,1.98-0.755,2.734,0l2.325,2.324l4.58-4.58
        c0.755-0.755,1.98-0.755,2.734,0c0.755,0.755,0.755,1.98,0,2.735l-5.948,5.948c-0.363,0.363-0.854,0.566-1.367,0.566
        s-1.005-0.204-1.367-0.566l-3.692-3.692C18.348,104.159,18.348,102.935,19.103,102.18z"/>
      <path style="fill:#DC3031;" d="M25.29,117.579c7.464,0,13.536-6.072,13.536-13.536c0-7.464-6.072-13.536-13.536-13.536
        s-13.536,6.072-13.536,13.536C11.754,111.507,17.826,117.579,25.29,117.579z M25.29,94.375c5.331,0,9.669,4.337,9.669,9.669
        s-4.337,9.669-9.669,9.669s-9.669-4.337-9.669-9.669S19.959,94.375,25.29,94.375z"/>
      <path style="fill:#DC3031;" d="M22.795,108.606c0.363,0.363,0.854,0.566,1.367,0.566s1.005-0.204,1.367-0.566l5.948-5.948
        c0.755-0.755,0.755-1.98,0-2.735c-0.755-0.755-1.98-0.755-2.734,0l-4.58,4.58l-2.325-2.324c-0.755-0.755-1.98-0.755-2.734,0
        c-0.755,0.755-0.755,1.98,0,2.735L22.795,108.606z"/>
      <path style="fill:#F1F2F2;" d="M48.343,94.227h46.409c1.068,0,1.934-0.866,1.934-1.934s-0.866-1.934-1.934-1.934H48.343
        c-1.068,0-1.934,0.866-1.934,1.934S47.274,94.227,48.343,94.227z"/>
      <path style="fill:#F1F2F2;" d="M48.343,105.829h46.409c1.068,0,1.934-0.866,1.934-1.934s-0.866-1.934-1.934-1.934H48.343
        c-1.068,0-1.934,0.866-1.934,1.934S47.274,105.829,48.343,105.829z"/>
      <path style="fill:#F1F2F2;" d="M48.343,117.431h46.409c1.068,0,1.934-0.866,1.934-1.934s-0.866-1.934-1.934-1.934H48.343
        c-1.068,0-1.934,0.866-1.934,1.934S47.274,117.431,48.343,117.431z"/>
      <path style="fill:#F1F2F2;" d="M13.536,129.42h81.215c1.068,0,1.934-0.866,1.934-1.934c0-1.068-0.866-1.934-1.934-1.934H13.536
        c-1.068,0-1.934,0.866-1.934,1.934C11.602,128.554,12.468,129.42,13.536,129.42z"/>
      <path style="fill:#F1F2F2;" d="M13.536,141.022h81.215c1.068,0,1.934-0.866,1.934-1.934c0-1.068-0.866-1.934-1.934-1.934H13.536
        c-1.068,0-1.934,0.866-1.934,1.934C11.602,140.156,12.468,141.022,13.536,141.022z"/>
      <path style="fill:#F1F2F2;" d="M13.536,152.624h81.215c1.068,0,1.934-0.866,1.934-1.934c0-1.068-0.866-1.934-1.934-1.934H13.536
        c-1.068,0-1.934,0.866-1.934,1.934C11.602,151.758,12.468,152.624,13.536,152.624z"/>
      <path style="fill:#F1F2F2;" d="M94.751,164.227c1.068,0,1.934-0.866,1.934-1.934c0-1.068-0.866-1.934-1.934-1.934H13.536
        c-1.068,0-1.934,0.866-1.934,1.934c0,1.068,0.866,1.934,1.934,1.934H94.751z"/>
      <path style="fill:#FFFFFF;" d="M288.508,45.11h-35.967v81.602h93.591V45.11H288.508z M260.655,71.879
        c2.933-7.53,7.998-13.97,14.648-18.624c0.875-0.612,2.081-0.4,2.693,0.475s0.399,2.081-0.475,2.693
        c-6.022,4.215-10.607,10.044-13.262,16.859c-0.298,0.765-1.028,1.233-1.802,1.233c-0.233,0-0.471-0.043-0.701-0.132
        C260.76,73.995,260.268,72.874,260.655,71.879z M320.899,53.73c0.613-0.875,1.819-1.087,2.693-0.475
        c6.65,4.655,11.715,11.095,14.648,18.624c0.388,0.995-0.105,2.116-1.1,2.504c-0.23,0.09-0.468,0.132-0.701,0.132
        c-0.774,0-1.504-0.468-1.802-1.233c-2.654-6.814-7.24-12.644-13.262-16.859C320.5,55.811,320.287,54.605,320.899,53.73z
        M329.09,86.599c0,8.996-4.02,17.066-10.352,22.524l3.89,6.731c0.534,0.925,0.218,2.107-0.707,2.642
        c-0.305,0.176-0.638,0.26-0.966,0.26c-0.668,0-1.318-0.347-1.676-0.966l-3.652-6.318c-4.681,3.075-10.274,4.871-16.282,4.871
        c-6.238,0-12.03-1.934-16.817-5.228l-3.858,6.675c-0.358,0.62-1.008,0.966-1.676,0.966c-0.328,0-0.661-0.084-0.966-0.26
        c-0.925-0.534-1.241-1.717-0.707-2.642l4.138-7.159c-6.048-5.448-9.857-13.335-9.857-22.096c0-16.4,13.343-29.743,29.743-29.743
        C315.748,56.855,329.09,70.198,329.09,86.599z"/>
      <path style="fill:#5A0026;" d="M348.066,41.243h-35.193h-3.867h-7.735h-3.867h-5.028h-41.768c-1.068,0-1.934,0.866-1.934,1.934
        v35.58v3.867v7.735v3.867v34.42c0,1.068,0.866,1.934,1.934,1.934h41.768h5.028h3.867h7.735h3.867h35.193
        c1.068,0,1.934-0.866,1.934-1.934v-85.47C350,42.109,349.134,41.243,348.066,41.243z M346.133,126.713h-93.591V45.11h35.967
        h57.624V126.713z"/>
      <path style="fill:#DC3031;" d="M261.755,74.382c0.23,0.09,0.468,0.132,0.701,0.132c0.774,0,1.504-0.468,1.802-1.233
        c2.654-6.815,7.24-12.644,13.262-16.859c0.875-0.612,1.088-1.818,0.475-2.693s-1.819-1.088-2.693-0.475
        c-6.65,4.654-11.715,11.094-14.648,18.624C260.268,72.874,260.76,73.995,261.755,74.382z"/>
      <path style="fill:#FFFFFF;" d="M299.347,60.723c-14.268,0-25.876,11.608-25.876,25.876s11.608,25.876,25.876,25.876
        c14.268,0,25.876-11.608,25.876-25.876S313.615,60.723,299.347,60.723z M315.58,89.199h-16.243c-1.068,0-1.934-0.866-1.934-1.934
        V71.022c0-1.068,0.866-1.934,1.934-1.934c1.068,0,1.934,0.866,1.934,1.934v14.309h14.309c1.068,0,1.934,0.866,1.934,1.934
        S316.648,89.199,315.58,89.199z"/>
      <path style="fill:#DC3031;" d="M299.347,56.855c-16.401,0-29.743,13.343-29.743,29.743c0,8.761,3.81,16.648,9.857,22.096
        l-4.138,7.159c-0.534,0.925-0.218,2.107,0.707,2.642c0.305,0.176,0.638,0.26,0.966,0.26c0.668,0,1.318-0.347,1.676-0.966
        l3.858-6.675c4.787,3.294,10.579,5.228,16.817,5.228c6.007,0,11.6-1.796,16.282-4.871l3.652,6.318
        c0.358,0.62,1.008,0.966,1.676,0.966c0.328,0,0.661-0.084,0.966-0.26c0.925-0.534,1.241-1.717,0.707-2.642l-3.89-6.731
        c6.332-5.459,10.352-13.528,10.352-22.524C329.09,70.198,315.748,56.855,299.347,56.855z M299.347,112.474
        c-14.268,0-25.876-11.608-25.876-25.876s11.608-25.876,25.876-25.876c14.268,0,25.876,11.608,25.876,25.876
        S313.615,112.474,299.347,112.474z"/>
      <path style="fill:#DC3031;" d="M321.375,56.423c6.022,4.215,10.608,10.045,13.262,16.859c0.298,0.765,1.028,1.233,1.802,1.233
        c0.233,0,0.471-0.043,0.701-0.132c0.995-0.388,1.488-1.509,1.1-2.504c-2.933-7.529-7.998-13.969-14.648-18.624
        c-0.875-0.612-2.081-0.399-2.693,0.475C320.287,54.605,320.5,55.811,321.375,56.423z"/>
      <path style="fill:#DC3031;" d="M315.58,85.331h-14.309V71.022c0-1.068-0.866-1.934-1.934-1.934c-1.068,0-1.934,0.866-1.934,1.934
        v16.243c0,1.068,0.866,1.934,1.934,1.934h16.243c1.068,0,1.934-0.866,1.934-1.934S316.648,85.331,315.58,85.331z"/>
    </symbol>


    <!-- fusion top nav bar -->
    <symbol id="logo" viewBox="0 0 80 80">
      <polygon style="fill:#AD1F28;" points="76.1,48.3 27.6,58.9 16.9,10.9 0.2,14.5 14.7,79 79.8,64.7 	"/>
      <polygon style="fill:#DB2F31;" points="65.3,0.2 72.7,33.2 39.4,40.5 32.1,7.5 	"/>
    </symbol>

    <symbol id="fusion-access" viewBox="0 0 80 80">
      <path d="M15.1,8.3v43.1H65V8.3H15.1z M34.5,36.6c-1.9-1.5-2.9-4.5-2.9-9c0-4.5,3.6-8.1,8.1-8.1c4.5,0,8.1,3.6,8.1,8.1
      c0,4.3-0.9,7.3-2.7,8.8c-0.4,0.4-0.7,0.9-0.7,1.5c0,0.6,0.3,1.1,0.8,1.5c7.1,4.9,8.3,7.3,8.4,8.2H26.3c0-0.6,0.7-2.8,8.1-8
      c0.5-0.3,0.8-0.9,0.8-1.5C35.3,37.5,35,37,34.5,36.6z M61.2,47.6h-3.8c-0.1-2.8-2.8-6.1-8.3-10.1c1.6-2.3,2.4-5.6,2.4-9.9
      c0-6.5-5.3-11.8-11.8-11.8c-6.5,0-11.8,5.3-11.8,11.8c0,4.5,0.9,7.9,2.6,10.2c-4.1,3-7.9,6.5-7.9,9.8h-3.7V12.1h42.4L61.2,47.6
      L61.2,47.6z"/>
        <path d="M23.5,54.8c-4.7,0-8.5,3.8-8.5,8.5c0,4.7,3.8,8.4,8.5,8.4c4,0,7.4-2.9,8.2-6.7h18.2v3h3.8v-3h3.8v5.3h3.8V65H65v-3.8H31.7
      C30.8,57.4,27.4,54.8,23.5,54.8z M28.2,63.4c0,2.6-2.1,4.7-4.7,4.7c-2.6,0-4.7-2.1-4.7-4.7c0-2.6,2.1-4.7,4.7-4.7
      C26,58.7,28.2,60.8,28.2,63.4z"/>
    </symbol>


    <symbol id="fusion-notifications" viewBox="0 0 50 50">
      <path d="M39.6,34.7c-0.2-0.2-0.5-0.3-0.8-0.2c-0.3-0.1-3.1-1.3-3.1-13.7c0-4.7-3.1-8.8-7.4-10.2c0-0.2,0-0.3,0-0.5
        c0-1.9-1.5-3.4-3.4-3.4c-1.9,0-3.4,1.5-3.4,3.4c0,0.2,0,0.3,0,0.5c-4.3,1.4-7.4,5.4-7.4,10.2c0,12.5-2.8,13.6-3.1,13.7
        c-0.3-0.1-0.5,0-0.8,0.2c-0.3,0.2-0.3,0.5-0.3,0.9v2.9c0,0.6,0.4,1.4,1,1.4h10.5c0,0,0,0,0,0c0,1.9,1.5,3.3,3.4,3.3
        c1.9,0,3.4-1.4,3.4-3.3c0-0.1,0,0,0,0h10.5c0.6,0,1.2-0.8,1.2-1.4v-2.9C40,35.3,39.8,34.9,39.6,34.7z M12.3,37.6v-1.2
        c0.5-0.3,1.4-1,2.2-2.4c1.3-2.6,1.9-7.1,1.9-13.2c0-4.7,3.8-8.6,8.5-8.6s8.5,3.8,8.5,8.6c0,11.8,2.4,14.9,4.2,15.7v1.2H12.3z
         M23.6,10.2c0-0.7,0.6-1.4,1.4-1.4c0.7,0,1.4,0.6,1.4,1.4c0,0,0,0,0,0c-0.4-0.1-0.9-0.1-1.4-0.1C24.5,10.1,24,10.1,23.6,10.2
        C23.6,10.2,23.6,10.2,23.6,10.2z M26.3,39.9c0,0.7-0.6,1.3-1.4,1.3c-0.7,0-1.4-0.5-1.4-1.2c0-0.1,0,0,0,0L26.3,39.9
        C26.3,39.9,26.3,39.9,26.3,39.9z"/>
    </symbol>

    <symbol id="fusion-user-profile" viewBox="0 0 50 50">
      <path d="M7.5,7.5v35h35v-35H7.5z M19.9,32.3c0.3-0.2,0.4-0.5,0.4-0.8c0-0.3-0.1-0.6-0.4-0.8c-1.8-1.4-2.7-4-2.7-8.1
        c0-4.1,3.4-7.5,7.5-7.5c4.1,0,7.5,3.4,7.5,7.5c0,3.9-0.8,6.5-2.5,7.9c-0.2,0.2-0.4,0.5-0.4,0.8c0,0.3,0.2,0.6,0.4,0.8
        c3.9,2.7,6.9,6.5,6.5,8.4H13.7C13.1,38.8,15.9,35,19.9,32.3z M40.4,40.5h-2c0.1-1.4-0.5-3.1-1.9-4.9c-1.2-1.6-2.8-3.1-4.6-4.5
        c1.6-1.9,2.3-4.7,2.3-8.6c0-5.2-4.3-9.5-9.6-9.5c-5.3,0-9.6,4.3-9.6,9.5c0,4,0.8,7,2.5,8.8c-3.1,2.4-6.5,6.2-6.1,9.1h-2V9.5h30.9
        V40.5z"/>
    </symbol>


    <symbol id="fusion-help" viewBox="0 0 50 50">
      <path d="M25,10c-8.3,0-15,6.7-15,15s6.7,15,15,15s15-6.7,15-15S33.3,10,25,10z M11.8,25c0-7.3,5.9-13.2,13.2-13.2
      S38.2,17.7,38.2,25S32.3,38.2,25,38.2S11.8,32.3,11.8,25z"/>
    <path d="M25.3,15.6c-2.6,0-4.6,1.1-5.9,2.8l1.4,1.5c1-1.3,2.3-2.2,4.4-2.2c2.2,0,3.2,1.2,3.2,2.5
      c0,2.9-5,3.2-5,6.7c0,0.8,0.3,1.6,1.1,2.2l1.7-0.7c-0.5-0.4-0.7-0.9-0.7-1.3c0-2.7,5.3-3,5.3-7.2C30.7,17.5,28.6,15.6,25.3,15.6z"
      />
    <path d="M25,31.4c-0.8,0-1.5,0.7-1.5,1.5c0,0.8,0.7,1.5,1.5,1.5c0.8,0,1.5-0.7,1.5-1.5S25.8,31.4,25,31.4z"/>
    </symbol>

    <symbol id="fusion-logout" viewBox="0 0 50 50">
      <path d="M39,21.7h-3.5V18c0-5.7-4.7-10.4-10.4-10.4H25c-5.7,0-10.3,4.6-10.3,10.4v3.7h-3.6c-0.6,0-1.1,0.5-1.1,1
        v18.6c0,0.6,0.5,1,1.1,1h28c0.6,0,1-0.5,1-1V22.8C40,22.2,39.6,21.7,39,21.7z M38,40.3H12V23.8H38L38,40.3L38,40.3z M16.7,18
        c0-4.6,3.7-8.3,8.3-8.3h0.1c4.6,0,8.4,3.7,8.4,8.3v3.7H16.7V18z"/>
      <path d="M26.1,37v-3.2c1.6-0.4,2.8-1.9,2.8-3.7c0-2.1-1.7-3.8-3.8-3.8s-3.8,1.7-3.8,3.8c0,1.7,1.2,3.2,2.8,3.7V37
      c0,0.6,0.5,1,1,1C25.7,38.1,26.1,37.6,26.1,37z M23.3,30.2c0-1,0.8-1.8,1.8-1.8c1,0,1.8,0.8,1.8,1.8c0,0.9-0.7,1.7-1.6,1.8
      c0,0-0.1,0-0.1,0c0,0-0.1,0-0.1,0C24,31.9,23.3,31.1,23.3,30.2z"/>
    </symbol>

    <symbol id="fusion-about" viewBox="0 0 32 32">
      <path d="M17.6,24.2c-0.7,0.3-1.5,0.5-2,0.5c-0.9,0-1.6-0.4-2.1-0.8c-0.5-0.4-0.7-1-0.7-1.6c0-0.3,0-0.5,0.1-0.8
        c0-0.3,0.1-0.6,0.2-0.9l0.9-3.2c0.1-0.3,0.1-0.6,0.2-0.9c0.1-0.3,0.1-0.5,0.1-0.8c0-0.4-0.1-0.7-0.3-0.9c-0.2-0.2-0.5-0.2-1-0.2
        c-0.2,0-0.5-0.9,0.6-1.3c0.5-0.2,1.1-0.3,1.5-0.3c0.9,0,1.5,0.2,2,0.6c0.5,0.4,0.7,1,0.7,1.6c0,0.1,0,0.4,0,0.7
        c0,0.3-0.1,0.7-0.2,1l-0.9,3.2c-0.1,0.3-0.1,0.5-0.2,0.9c-0.1,0.3-0.1,0.6-0.1,0.7c0,0.4,0.1,0.7,0.3,0.9c0.2,0.2,0.5,0.2,1,0.2
        c0.2,0,0.5-0.3,0.7-0.1C18.8,23.1,18.4,23.8,17.6,24.2z"/>
      <path d="M17.1,7.7c-0.6,0-1.1,0.2-1.5,0.6c-0.4,0.4-0.6,0.9-0.6,1.4c0,0.6,0.2,1,0.6,1.4c0.4,0.4,0.9,0.6,1.5,0.6
        c0.6,0,1.1-0.2,1.5-0.6c0.4-0.4,0.6-0.9,0.6-1.4c0-0.6-0.2-1-0.6-1.4C18.2,7.9,17.7,7.7,17.1,7.7z"/>
      <path d="M16,0C7.2,0,0,7.2,0,16s7.2,16,16,16s16-7.2,16-16S24.8,0,16,0z M16,30C8.3,30,2,23.7,2,16S8.3,2,16,2
        s14,6.3,14,14S23.7,30,16,30z"/>
    </symbol>


    <!-- Admin icons -->
    <symbol id="admin-collections" viewBox="0 0 80 80">
      <path d="M62.2,15H29.6v5.9h-5.9v5.9h-5.9V65h32.5v-5.9h5.9v-5.9h5.9V15z M59.2,50.2h-3V20.9H32.6v-3h26.6V50.2z M20.8,62V29.8
        h26.6V62H20.8z M50.4,26.8H26.7v-3h26.6v32.2h-3V26.8z"/>
    </symbol>

    <symbol id="admin-pipelines" viewBox="0 0 80 80">
      <path d="M66.7,36.6v2.3h-4.5C61.9,28.7,57.8,21,52.7,21c-0.8,0-1.5,0.2-2.2,0.5C49.8,21.2,49,21,48.3,21c-1.6,0-3.2,0.8-4.5,2.2
              c-1.3-1.4-2.9-2.2-4.5-2.2c-0.8,0-1.5,0.2-2.2,0.5c-0.7-0.3-1.4-0.5-2.2-0.5c-1.6,0-3.2,0.8-4.5,2.2C29,21.8,27.5,21,25.9,21
              c-0.8,0-1.5,0.2-2.2,0.5C23,21.2,22.2,21,21.5,21c-5.2,0-9.3,7.8-9.5,17.9H7.5v2.2H12C12.3,51.2,16.3,59,21.5,59
              c0.8,0,1.5-0.2,2.2-0.5c0.7,0.3,1.4,0.5,2.2,0.5c1.6,0,3.2-0.8,4.5-2.2c1.3,1.4,2.9,2.2,4.5,2.2c0.8,0,1.5-0.2,2.2-0.5
              c0.7,0.3,1.4,0.5,2.2,0.5c1.6,0,3.2-0.8,4.5-2.2c1.3,1.4,2.9,2.2,4.5,2.2c0.8,0,1.5-0.2,2.2-0.5c0.7,0.3,1.4,0.5,2.2,0.5
              c5.2,0,9.2-7.8,9.5-17.8h4.5v2.1l5.8-3.3h0L66.7,36.6z M52.7,56.8c-3.5,0-7.3-6.7-7.3-16.8s3.8-16.7,7.3-16.7
              c3.4,0,7,6.3,7.3,15.7h-6.9v1v1.2h6.9C59.7,50.6,56,56.8,52.7,56.8z M39.3,56.7C35.7,56.7,32,50,32,40s3.8-16.7,7.3-16.7
              c1.1,0,2.1,0.6,3.1,1.7c-2.1,3.3-3.5,8.2-3.6,14h-2.2v2.2h2.2c0.2,5.7,1.5,10.6,3.6,13.8C41.4,56.1,40.3,56.7,39.3,56.7z
               M25.9,56.7c-3.5,0-7.3-6.7-7.3-16.7s3.8-16.7,7.3-16.7c1.1,0,2.1,0.6,3.1,1.7c-2.1,3.3-3.5,8.2-3.6,14h-2.2v2.2h2.2
              c0.2,5.7,1.5,10.6,3.6,13.8C28,56.1,26.9,56.7,25.9,56.7z M14.2,40c0-9.9,3.6-16.5,7.1-16.7c-3,3.2-5,9.4-5,16.7s2,13.6,5,16.7
              C17.8,56.5,14.2,49.8,14.2,40z M27.6,40c0-9.9,3.6-16.5,7.1-16.7c-3,3.2-5,9.4-5,16.7s2,13.6,5,16.7C31.2,56.5,27.6,49.8,27.6,40z
               M41,40c0-9.9,3.6-16.5,7.1-16.7c-3,3.2-5,9.4-5,16.7s2,13.6,5,16.7C44.6,56.5,41,49.8,41,40z"/>
    </symbol>

    <symbol id="admin-pipelines-alt" viewBox="0 0 80 80">
      <path d="M32.8,53.9l1.9,1.2c0.4-0.6,0.7-1.2,1-1.9l-2.1-0.9C33.4,52.9,33.1,53.4,32.8,53.9z"/>
      <path d="M34.5,50.2l2.2,0.7c0.2-0.7,0.4-1.4,0.6-2.1l-2.2-0.6C34.9,49,34.7,49.6,34.5,50.2z"/>
      <path d="M35.5,46.2l2.2,0.4c0.1-0.7,0.2-1.4,0.3-2.1l-2.3-0.3C35.7,44.9,35.6,45.5,35.5,46.2z"/>
      <path d="M20.6,51.2c0.2,0.7,0.5,1.4,0.8,2l2.1-1c-0.3-0.6-0.5-1.2-0.7-1.8L20.6,51.2z"/>
      <path d="M21.7,46.4l-2.2,0.4c0.1,0.7,0.3,1.4,0.5,2.1l2.2-0.6C22,47.7,21.9,47.1,21.7,46.4z"/>
      <path d="M36,37.8l2.3-0.1c0-0.7-0.1-1.4-0.2-2.1l-2.3,0.3C35.9,36.4,35.9,37.1,36,37.8z"/>
      <path d="M24.4,26.1l-1.9-1.2c-0.4,0.6-0.7,1.2-1,1.9l2.1,0.9C23.8,27.2,24.1,26.6,24.4,26.1z"/>
      <path d="M35.5,33.6l2.2-0.4c-0.1-0.7-0.3-1.4-0.5-2.1l-2.2,0.6C35.2,32.3,35.4,32.9,35.5,33.6z"/>
      <path d="M22.7,29.8l-2.2-0.7c-0.2,0.7-0.4,1.4-0.6,2.1l2.2,0.6C22.3,31,22.5,30.4,22.7,29.8z"/>
      <path d="M21.2,42.2L19,42.4c0,0.7,0.1,1.4,0.2,2.1l2.3-0.3C21.3,43.6,21.3,42.9,21.2,42.2z"/>
      <path d="M36.6,28.8c-0.2-0.7-0.5-1.4-0.8-2l-2.1,1c0.3,0.6,0.5,1.2,0.7,1.8L36.6,28.8z"/>
      <path d="M21.7,33.9l-2.2-0.4c-0.1,0.7-0.2,1.4-0.3,2.1l2.3,0.3C21.5,35.2,21.6,34.5,21.7,33.9z"/>
      <path d="M64.7,35.5v3.4h-2.5c-0.3-10.2-4.4-18.2-9.7-18.2H21.8c-5.3,0-9.4,7.9-9.7,18.2H8.6c-0.6,0-1.1,0.5-1.1,1.1
        c0,0.6,0.5,1.1,1.1,1.1h3.4c0.3,10.3,4.4,18.2,9.7,18.2h6.5c0.1,0,0.2,0,0.4,0h0.1l0,0h23.5c0.1,0,0.2,0,0.3,0
        c5.3,0,9.4-8,9.7-18.2h2.5v3.4l7.8-4.6h0L64.7,35.5z M27,57.1h-2.9l1.6-1.5c-0.4-0.4-0.8-0.9-1.1-1.5l-1.9,1.2
        c0.4,0.6,0.9,1.2,1.3,1.7h-2.2c-3.5,0-7.1-6.4-7.4-15.9H36c0,0.3,0,0.6,0,0.9l2.3,0.1c0-0.3,0-0.7,0-1h4.5c0.2,7,2.2,12.9,5,15.9
        H33.1l-1.6-1.5c-0.4,0.5-0.9,0.8-1.3,1.1l0.2,0.4h-2.1H27z M30.2,22.9h2.9l-1.6,1.5c0.4,0.4,0.8,0.9,1.1,1.4l1.9-1.2
        c-0.4-0.6-0.9-1.2-1.3-1.7h14.6C45,26,43,31.9,42.8,38.9H21.2c0-0.3,0-0.6,0-0.8l-2.3-0.1c0,0.3,0,0.6,0,0.9h-4.6
        c0.3-9.6,4-15.9,7.4-15.9H24l1.6,1.5c0.4-0.5,0.9-0.8,1.3-1.1l-0.3-0.5h2l0,0h-0.1 M45.1,41.1H55c0,0,0.1,0,0.1,0h4.8
        c-0.3,9.6-4,15.9-7.4,15.9C49,57.1,45.3,50.7,45.1,41.1z M59.9,38.9h-3.3c0,0-0.1,0-0.1,0H45.1c0.3-9.6,4-15.9,7.4-15.9
        C55.9,22.9,59.6,29.3,59.9,38.9z M28.7,21.8v-1.1V21.8z"/>
    </symbol>

    <symbol id="admin-search" viewBox="0 0 80 80">
      <path d="M49.5,47.5c6.6-7.7,6.3-19.4-1-26.7C44.8,17,39.9,15,34.6,15s-10.2,2-13.9,5.8c-7.7,7.7-7.7,20.1,0,27.8
        c3.7,3.7,8.6,5.8,13.9,5.8c4.8,0,9.2-1.7,12.8-4.8L62.9,65l1-1l1-1L49.5,47.5z M22.8,46.4c-6.5-6.5-6.5-17.1,0-23.6
        C26,19.7,30.2,18,34.6,18c4.5,0,8.6,1.7,11.8,4.9c6.5,6.5,6.5,17.1,0,23.6c-3.2,3.2-7.3,4.9-11.8,4.9C30.2,51.3,26,49.6,22.8,46.4
        z"/>

    </symbol>


    <symbol id="admin-search-alt" viewBox="0 0 80 80">
      <path d="M65,62.9L49.5,47.5c6.6-7.7,6.3-19.4-1-26.7C44.8,17,39.9,15,34.6,15s-10.2,2-13.9,5.8c-7.7,7.7-7.7,20.1,0,27.8
          c3.7,3.7,8.6,5.8,13.9,5.8c4.8,0,9.2-1.7,12.8-4.8L62.9,65L65,62.9z M46.4,22.8c6.5,6.5,6.5,17.1,0,23.6
          c-3.2,3.2-7.3,4.9-11.8,4.9s-8.6-1.7-11.8-4.9c-6.5-6.5-6.5-17.1,0-23.6C26,19.7,30.2,18,34.6,18S43.3,19.7,46.4,22.8z"/>
    </symbol>


    <symbol id="admin-scheduler" viewBox="0 0 80 80">
      <path d="M56.3,58.2c5.2-4.5,8.4-11.2,8.4-18.6C64.7,26.1,53.6,15,40,15S15.3,26.1,15.3,39.7c0,7.2,3.1,13.7,8,18.2l-3.3,5.6
          l2.6,1.5l3-5.2c4,2.9,9,4.6,14.3,4.6c5.2,0,9.9-1.6,13.9-4.3l2.9,4.9l1.3-0.7l1.3-0.7L56.3,58.2z M25.2,57.7L25.2,57.7L25.2,57.7z
           M18.3,39.7C18.3,27.7,28,18,40,18s21.7,9.7,21.7,21.7S52,61.4,40,61.4S18.3,51.7,18.3,39.7z M54.3,57.8L54.3,57.8L54.3,57.8z"/>
      <polygon points="59,38.3 41.6,38.3 41.6,20.9 38.6,20.9 38.6,41.3 59,41.3 		"/>
    </symbol>

    <symbol id="admin-system" viewBox="0 0 80 80">
      <path d="M40,15c-13.8,0-25,11.2-25,25c0,13.8,11.2,25,25,25c6.7,0,12.9-2.6,17.7-7.3c4.7-4.7,7.3-11,7.3-17.7
            C65,26.2,53.8,15,40,15z M40,62.1c-12.2,0-22.1-9.9-22.1-22.1c0-12.2,9.9-22.1,22.1-22.1S62.1,27.8,62.1,40
            c0,5.9-2.3,11.4-6.5,15.6C51.4,59.8,45.9,62.1,40,62.1z"/>
      <path d="M40,21.1c-10.5,0-19,8.4-19,19h2.9C23.9,31.3,31.1,24,40,24s16.1,7.3,16.1,16.1H59C59,29.5,50.5,21.1,40,21.1z"/>
      <path d="M50.2,31.7l-1-1l-7.3,7.3c-0.6-0.3-1.2-0.4-1.9-0.4c-2.4,0-4.4,2-4.4,4.4s2,4.4,4.4,4.4s4.4-2,4.4-4.4
        c0-0.7-0.2-1.3-0.4-1.9l7.3-7.3L50.2,31.7z M38.5,41.9c0-0.8,0.7-1.5,1.5-1.5s1.5,0.7,1.5,1.5c0,0.8-0.7,1.5-1.5,1.5
        S38.5,42.7,38.5,41.9z"/>
    </symbol>

    <symbol id="admin-security" viewBox="0 0 80 80">
  <path d="M17.5,50.2h45c0.8,0,1.4-0.6,1.4-1.4V17.6c0-0.8-0.6-1.4-1.4-1.4h-45c-0.8,0-1.4,0.6-1.4,1.4v31.2
    C16.2,49.6,16.8,50.2,17.5,50.2z M35.6,41c0.4-0.3,0.6-0.7,0.6-1.1c0-0.4-0.2-0.9-0.5-1.1c-1.5-1.2-2.3-3.5-2.3-7
    c0-3.5,2.8-6.3,6.3-6.3s6.3,2.8,6.3,6.3c0,3.4-0.7,5.7-2.1,6.9c-0.3,0.3-0.5,0.7-0.5,1.1c0,0.4,0.2,0.8,0.6,1.1
    c6.1,4.1,6.5,6.1,6.5,6.6H29.3C29.3,47.4,28.7,45.9,35.6,41z M18.9,19h42.2v28.4h-7.8c0-2.2-2-4.8-6.5-8c1.3-1.8,1.9-4.3,1.9-7.7
    c0-5-4.1-9.1-9.1-9.1s-9.1,4.1-9.1,9.1c0,3.5,0.7,6.1,2.1,7.9c-3.2,2.4-6.3,5.2-6.2,7.7h-7.6V19z"/>
  <path d="M63,57.5H28.5c-0.8-2.6-3.2-4.5-6.1-4.5c-3.5,0-6.3,2.8-6.3,6.3c0,3.5,2.8,6.3,6.3,6.3c3.2,0,5.8-2.4,6.2-5.4h23.2v1.8
    c0,0.8,0.6,1.4,1.4,1.4s1.4-0.6,1.4-1.4v-1.8h3.7v4.6c0,0.8,0.6,1.4,1.4,1.4c0.8,0,1.4-0.6,1.4-1.4v-4.6H63c0.8,0,1.4-0.6,1.4-1.4
    C64.3,58.2,63.7,57.5,63,57.5z M26.1,59.4c0,2-1.6,3.6-3.6,3.6s-3.6-1.6-3.6-3.6c0-2,1.6-3.6,3.6-3.6S26.1,57.4,26.1,59.4z"/>
    </symbol>

    <symbol id="admin-system-alt" viewBox="0 0 80 80">
      <path d="M40,15c-13.8,0-25,11.2-25,25s11.2,25,25,25s25-11.2,25-25S53.8,15,40,15z M40,62c-7.2,0-13.6-3.5-17.6-8.8h11.3
          c0.7,2.8,3.3,5,6.3,5c3,0,5.6-2.2,6.3-5h11.3C53.6,58.6,47.2,62,40,62z M62,40c0,3.7-0.9,7.2-2.5,10.3h-16v1.5
          c0,1.9-1.7,3.5-3.5,3.5s-3.5-1.6-3.5-3.5v-1.5H20.5C18.9,47.2,18,43.7,18,40c0-12.2,9.9-22,22-22S62,27.8,62,40z"/>
        <circle cx="40" cy="26.2" r="3"/>
        <path d="M26.9,29.6c-1,1.3-0.8,3.1,0.5,4.1c0.5,0.4,1.2,0.6,1.8,0.6c0.9,0,1.7-0.4,2.3-1.1c1-1.3,0.8-3.1-0.5-4.1
          c-0.5-0.4-1.2-0.6-1.8-0.6C28.3,28.5,27.5,28.9,26.9,29.6z"/>
        <path d="M29.5,42.7c-0.1-0.8-0.5-1.5-1.1-2c-0.5-0.4-1.2-0.6-1.8-0.6c-0.9,0-1.7,0.4-2.3,1.1c-0.5,0.6-0.7,1.4-0.6,2.2
          c0.1,0.8,0.5,1.5,1.1,2c0.5,0.4,1.2,0.6,1.8,0.6c0.9,0,1.7-0.4,2.3-1.1C29.4,44.3,29.6,43.5,29.5,42.7z"/>
        <path d="M52.8,45.9c0.2,0,0.4,0.1,0.7,0.1c1.4,0,2.6-1,2.9-2.3c0.2-0.8,0-1.6-0.4-2.2c-0.4-0.7-1.1-1.1-1.8-1.3
          c-0.2,0-0.4-0.1-0.7-0.1c-1.4,0-2.6,1-2.9,2.3c-0.2,0.8,0,1.6,0.4,2.2C51.3,45.3,52,45.8,52.8,45.9z"/>
        <path d="M51.4,28.5c-0.2,0-0.4-0.1-0.7-0.1c-1.4,0-2.6,1-2.9,2.3c-0.2,0.8,0,1.6,0.4,2.2c0.4,0.7,1.1,1.1,1.8,1.3
          c0.2,0,0.4,0.1,0.7,0.1c1.4,0,2.6-1,2.9-2.3c0.2-0.8,0-1.6-0.4-2.2C52.8,29.2,52.2,28.7,51.4,28.5z"/>
        <path d="M40.5,41.2c-0.2,0-0.3-0.1-0.5-0.1c-1.6,0-3,1.3-3,3s1.3,3,3,3c1.6,0,3-1.3,3-3c0-0.3-0.1-0.7-0.2-1l4.7-5.5l-2.2-1.9
          L40.5,41.2z"/>
    </symbol>

    <!-- datasource list icons -->
    <symbol id="datasources-list-running" viewBox="0 0 100 100">
      <path d="M40,0C17.944,0,0,17.944,0,40s17.944,40,40,40s40-17.944,40-40S62.056,0,40,0z M4.724,40
        C4.724,20.549,20.549,4.724,40,4.724S75.276,20.549,75.276,40S59.451,75.276,40,75.276S4.724,59.451,4.724,40z"/>
      <path d="M30,54.51L58.057,40L30,25.49V54.51z M35,33.251L48.049,40L35,46.749V33.251z"/>
    </symbol>
    <symbol id="datasources-list-finished" viewBox="0 0 100 100">
      <path d="M40,0C17.944,0,0,17.944,0,40s17.944,40,40,40s40-17.944,40-40S62.056,0,40,0z M4.706,40
        C4.706,20.539,20.539,4.706,40,4.706S75.294,20.539,75.294,40S59.461,75.294,40,75.294S4.706,59.461,4.706,40z"/>
      <polygon points="53.976,28.892 36.34,46.528 26.024,36.212 22.697,39.54 36.34,53.183 57.303,32.219 	"/>
    </symbol>
    <symbol id="datasources-list-exception" viewBox="0 0 100 100">
      <path d="M68.282,11.709C60.725,4.152,50.677-0.009,39.991-0.009c-10.687,0-20.734,4.162-28.291,11.718
        c-15.6,15.6-15.6,40.982,0,56.582c7.557,7.557,17.604,11.718,28.291,11.718c10.687,0,20.734-4.162,28.291-11.718S80,50.687,80,40
        S75.838,19.266,68.282,11.709z M39.991,75.302c-9.43,0-18.295-3.672-24.963-10.34C8.36,58.295,4.688,49.43,4.688,40
        s3.672-18.295,10.34-24.962c6.668-6.668,15.533-10.34,24.963-10.34s18.295,3.672,24.963,10.34
        C71.621,21.705,75.293,30.57,75.293,40s-3.672,18.295-10.34,24.962C58.285,71.63,49.42,75.302,39.991,75.302z"/>
      <polygon points="47.853,28.731 39.865,36.719 31.877,28.731 28.549,32.059 36.537,40.047 28.549,48.035 31.877,51.364
        39.865,43.376 47.853,51.364 49.517,49.699 51.182,48.035 43.194,40.047 51.182,32.059 	"/>

      <line style="fill:none;stroke:#FFFFFF;stroke-width:0;stroke-linecap:round;stroke-linejoin:round;" x1="49.517" y1="49.699" x2="49.517" y2="49.699"/>
    </symbol>
    <symbol id="datasources-list-aborted" viewBox="0 0 100 100">
      <path d="M40,0C17.944,0,0,17.944,0,40s17.944,40,40,40c22.056,0,40-17.944,40-40S62.056,0,40,0z M4.724,40
        C4.724,20.549,20.549,4.724,40,4.724S75.276,20.549,75.276,40S59.451,75.276,40,75.276S4.724,59.451,4.724,40z"/>
      <path d="M15,47h50V33H15V47z M20,37h40v5H20V37z"/>
    </symbol>
    <symbol id="datasources-list-aborting" viewBox="0 0 100 100">
      <path d="M40,0C17.944,0,0,17.944,0,40s17.944,40,40,40c22.056,0,40-17.944,40-40S62.056,0,40,0z M4.724,40
        C4.724,20.549,20.549,4.724,40,4.724S75.276,20.549,75.276,40S59.451,75.276,40,75.276S4.724,59.451,4.724,40z"/>
      <path d="M15,47h50V33H15V47z M20,37h40v5H20V37z"/>
    </symbol>
    <symbol id="datasources-list-idle" viewBox="0 0 100 100">
      <path d="M40,0C17.944,0,0,17.944,0,40s17.944,40,40,40c22.056,0,40-17.944,40-40S62.056,0,40,0z M4.724,40
        C4.724,20.549,20.549,4.724,40,4.724S75.276,20.549,75.276,40S59.451,75.276,40,75.276S4.724,59.451,4.724,40z"/>
      <path d="M47.647,43.115c-5.936,0-10.765-4.829-10.765-10.766c0-1.842,0.499-3.639,1.482-5.34l2.935-5.077l-5.635,1.626
          c-7.183,2.072-12.199,8.704-12.199,16.128c0,9.291,7.557,16.85,16.846,16.85c7.425,0,14.057-5.016,16.131-12.198l1.622-5.618
          l-5.069,2.915C51.286,42.617,49.487,43.115,47.647,43.115z M40.311,51.811c-6.684,0-12.122-5.44-12.122-12.126
          c0-3.485,1.544-6.728,4.058-8.973c-0.06,0.542-0.09,1.088-0.09,1.638c0,8.541,6.948,15.49,15.489,15.49
          c0.552,0,1.1-0.03,1.644-0.09C47.044,50.266,43.799,51.811,40.311,51.811z"/>
    </symbol>
    <symbol id="datasources-list-stopped" viewBox="0 0 100 100">
      <path d="M40.035,0.478c-22.056,0-40,17.944-40,40s17.944,40,40,40c22.056,0,40-17.944,40-40S62.092,0.478,40.035,0.478z
         M4.76,40.478c0-19.451,15.825-35.276,35.276-35.276s35.276,15.825,35.276,35.276c0,19.451-15.825,35.276-35.276,35.276
        S4.76,59.929,4.76,40.478z"/>
      <path d="M28.208,52.289l23.621-0.001v-23.62l-23.621,0.001V52.289z M32.932,33.393l14.173-0.001v14.172l-14.173,0.001V33.393z"/>
    </symbol>
    <symbol id="datasources-list-stopping" viewBox="0 0 100 100">
      <path d="M40.035,0.478c-22.056,0-40,17.944-40,40s17.944,40,40,40c22.056,0,40-17.944,40-40S62.092,0.478,40.035,0.478z
         M4.76,40.478c0-19.451,15.825-35.276,35.276-35.276s35.276,15.825,35.276,35.276c0,19.451-15.825,35.276-35.276,35.276
        S4.76,59.929,4.76,40.478z"/>
      <path d="M28.208,52.289l23.621-0.001v-23.62l-23.621,0.001V52.289z M32.932,33.393l14.173-0.001v14.172l-14.173,0.001V33.393z"/>
    </symbol>
    <symbol id="datasources-list-start" viewBox="0 0 100 100">
      <path d="M40,0C17.944,0,0,17.944,0,40s17.944,40,40,40c22.056,0,40-17.944,40-40S62.056,0,40,0z M4.724,40
        C4.724,20.549,20.549,4.724,40,4.724S75.276,20.549,75.276,40S59.451,75.276,40,75.276S4.724,59.451,4.724,40z"/>
      <rect x="38" y="58" width="5" height="10"/>
      <rect x="48" y="58" width="5" height="6"/>
      <rect x="28" y="58" width="5" height="6"/>
      <path d="M48.847,39.216c0.383-2.032,0.651-4.197,0.651-6.438c0-9.118-3.35-17.008-8.384-19.634l-1.077-0.57l-1.085,0.57
          c-5.033,2.626-8.411,10.516-8.411,19.634c0,2.235,0.45,4.396,0.831,6.424C25.444,40.014,21,44.988,21,51.118V53h38v-1.882
          C59,45.025,54.687,40.073,48.847,39.216z M40.052,17.884C42,19.615,43.787,23,44.503,28h-8.9
          C36.318,23,38.106,19.615,40.052,17.884z M44.833,33c-0.035,7-2.278,12.288-4.781,14.512C37.551,45.288,35.308,40,35.273,33H44.833
          z M47.716,43.296c3.036,0.2,5.571,2.704,6.504,4.704h-8.894C46.263,47,47.067,45.063,47.716,43.296z M34.779,48h-9
          c0.944-2,3.528-4.544,6.609-4.708C33.038,45.061,33.842,47,34.779,48z"/>
    </symbol>
    <symbol id="datasources-list-starting" viewBox="0 0 100 100">
      <path d="M40,0C17.944,0,0,17.944,0,40s17.944,40,40,40c22.056,0,40-17.944,40-40S62.056,0,40,0z M4.724,40
        C4.724,20.549,20.549,4.724,40,4.724S75.276,20.549,75.276,40S59.451,75.276,40,75.276S4.724,59.451,4.724,40z"/>
      <rect x="38" y="58" width="5" height="10"/>
      <rect x="48" y="58" width="5" height="6"/>
      <rect x="28" y="58" width="5" height="6"/>
      <path d="M48.847,39.216c0.383-2.032,0.651-4.197,0.651-6.438c0-9.118-3.35-17.008-8.384-19.634l-1.077-0.57l-1.085,0.57
        c-5.033,2.626-8.411,10.516-8.411,19.634c0,2.235,0.45,4.396,0.831,6.424C25.444,40.014,21,44.988,21,51.118V53h38v-1.882
          C59,45.025,54.687,40.073,48.847,39.216z M40.052,17.884C42,19.615,43.787,23,44.503,28h-8.9
          C36.318,23,38.106,19.615,40.052,17.884z M44.833,33c-0.035,7-2.278,12.288-4.781,14.512C37.551,45.288,35.308,40,35.273,33H44.833
          z M47.716,43.296c3.036,0.2,5.571,2.704,6.504,4.704h-8.894C46.263,47,47.067,45.063,47.716,43.296z M34.779,48h-9
          c0.944-2,3.528-4.544,6.609-4.708C33.038,45.061,33.842,47,34.779,48z"/>
    </symbol>


    <!-- datasource picker icons -->
    <symbol id="datasources-repository" viewBox="0 0 16 16">
      <path d="M5.3,13.3c0-0.6-0.2-1.2-0.6-1.6l2.8-4.6c0.1,0,0.3,0,0.4,0c0.1,0,0.3,0,0.4,0l2.8,4.6
        c-0.3,0.4-0.6,1-0.6,1.6c0,1.5,1.2,2.7,2.7,2.7s2.7-1.2,2.7-2.7s-1.2-2.7-2.7-2.7c-0.1,0-0.3,0-0.4,0l-2.8-4.6
        c0.3-0.4,0.6-1,0.6-1.6C10.7,3,9.5,1.8,8,1.8S5.3,3,5.3,4.4c0,0.6,0.2,1.2,0.6,1.6l-2.8,4.6c-0.1,0-0.3,0-0.4,0
        c-1.5,0-2.7,1.2-2.7,2.7S1.2,16,2.7,16S5.3,14.8,5.3,13.3z"/>
    </symbol>

    <symbol id="datasources-database" viewBox="0 0 80 80">
      <path d="M40.047,0.47c-0.008,0-0.016,0-0.024,0c-0.008,0-0.016,0-0.024,0c-22.43,0-40,8.744-40,19.99v39.012
    C0,70.72,17.57,79.53,40,79.53c22.416,0,39.976-8.81,39.976-20.055L80,20.494C80,9.247,62.45,0.47,40.047,0.47z M40,74.829
    c-21.115,0-35.299-7.94-35.299-15.356v-9.935c6.683,6.292,19.856,10.486,35.347,10.486c15.439,0,28.569-4.19,35.234-10.479
    l-0.006,9.928C75.276,66.889,61.101,74.829,40,74.829z M75.299,20.461c0,7.416-14.165,15.356-35.252,15.356
    S4.795,27.877,4.795,20.461c0-7.416,14.165-15.356,35.252-15.356S75.299,13.045,75.299,20.461z M75.288,39.838
    c-0.002,0.043-0.013,0.084-0.013,0.128c0,7.416-14.155,15.356-35.227,15.356c-9.712,0-18.817-1.763-25.638-4.964
    c-6.17-2.895-9.709-6.683-9.709-10.393V29.949c6.64,6.338,19.826,10.568,35.347,10.568c15.441,0,28.573-4.186,35.246-10.469
    L75.288,39.838z"/>
    </symbol>
    <symbol id="datasources-filesystem" viewBox="0 0 80 80">
      <path d="M22.959,0L9.467,14.718V80h61.065V0H22.959z M65.799,75.266H14.201V18.935h14.201V4.734h37.396V75.266z M23.669,6.231
    v7.971h-7.306L23.669,6.231z"/>
  <rect x="18.935" y="28.402" width="42.13" height="4.734"/>
  <rect x="18.935" y="37.87" width="42.13" height="4.734"/>
  <rect x="18.935" y="47.337" width="42.13" height="4.734"/>
    </symbol>
    <symbol id="datasources-hadoop_cluster" viewBox="0 0 80 80">
        <path d="M76.464,59.234c-3.148,0-5.695-2.561-5.695-5.709V28.719C70.769,12.89,57.855,0,42.022,0H30.12
      C14.289,0,1.183,12.89,1.183,28.719v49.107C1.183,79.133,2.469,80,3.777,80h17.978c1.307,0,2.151-0.867,2.151-2.174v-9.622
      c1.893-0.42,4.898-0.989,7.809-0.989c2.899,0,5.919,0.571,7.812,0.991v9.62c0,1.307,0.915,2.174,2.222,2.174h9.181
      c1.307,0,2.324-0.867,2.324-2.174V60.907c3.314,9.494,12.528,16.306,23.171,16.306c1.307,0,2.391-1.06,2.391-2.367V61.6
      C78.817,60.293,77.771,59.234,76.464,59.234z M74.083,72.339c-9.941-1.174-17.515-9.551-17.515-19.675v-1.179
      c0-0.239-0.023-0.477-0.094-0.705c-0.41-1.314-1.766-2.639-3.888-2.639c-1.695,0-3.165,0.888-3.819,2.322
      c-0.148,0.314-0.246,0.66-0.246,1.014v23.787h-4.26V66.38c0-1.04-0.751-1.958-1.746-2.263c-0.218-0.067-5.439-1.636-10.729-1.636
      c-5.289,0-10.597,1.569-10.815,1.636c-0.994,0.305-1.799,1.223-1.799,2.263v8.886H5.917V28.719
      c0-13.219,10.982-23.986,24.203-23.986h11.901c13.223,0,24.014,10.767,24.014,23.986v24.805c0,4.944,3.314,9.097,8.047,10.172
      V72.339z"/>
    <path d="M52.563,30.885c-1.166,0-2.211,0.468-2.941,1.317c-0.616,0.716-0.955,1.65-0.955,2.63c0,2.25,1.675,3.947,3.896,3.947
      c1.166,0,2.211-0.468,2.941-1.317c0.616-0.716,0.955-1.65,0.955-2.63C56.459,32.582,54.784,30.885,52.563,30.885z"/>
    <path d="M40.067,48.411c-3.452,1.53-7.292,1.624-10.814,0.266c-3.522-1.358-6.305-4.007-7.834-7.458
      c-1.53-3.451-1.625-7.292-0.266-10.814c1.359-3.522,4.007-6.305,7.458-7.835c1.195-0.53,1.734-1.928,1.205-3.123
      c-0.53-1.195-1.929-1.735-3.123-1.204c-4.607,2.043-8.143,5.757-9.957,10.459c-1.814,4.702-1.687,9.829,0.355,14.436
      c2.042,4.607,5.757,8.143,10.459,9.957c2.204,0.85,4.502,1.274,6.795,1.274c2.599,0,5.193-0.544,7.64-1.629
      c1.195-0.53,1.734-1.928,1.205-3.123C42.661,48.42,41.262,47.88,40.067,48.411z"/>
    </symbol>
    <symbol id="datasources-push_content" viewBox="0 0 80 80">
        <polygon style="fill:none;" points="18.341,55 18.343,55 18.334,55 	"/>
        <polygon style="fill:none;" points="63.515,55 63.512,55 63.512,55 	"/>
        <path d="M80,42.79c0-9.121-7.55-16.827-16.487-16.827c-0.654,0-1.343,0.081-2.138,0.253c-3.2-10.535-12.479-17.578-23.232-17.578
          c-9.517,0-18.337,5.624-22.55,14.353C6.826,24.115,0,32.062,0,41.212c0,4.785,2.088,9.513,5.585,12.647
          C9.279,57.17,13.803,59,18.326,59c0.005,0,0.01,0,0.015,0c0.001,0,0.002,0,0.002,0h0H30h1v-5H18.342
          c-3.538,0-7.091-1.365-9.746-3.746c-2.635-2.36-4.085-5.554-4.085-8.994c0-7.22,5.812-13.566,12.695-13.859l1.428-0.077
          l0.552-1.323c3.271-7.806,10.713-12.85,18.957-12.85c9.419,0,17.398,6.698,19.405,16.289l0.489,2.338l2.931-0.797
          c0.883-0.25,1.795-0.507,2.545-0.507c6.604,0,11.977,5.415,11.977,12.071C75.488,48.969,70.228,54,63.512,54H48v1v4h15.512h0
          c0.003,0,0.005,0,0.008,0C72.607,58.995,79.999,51.725,80,42.79z M18.343,55c0,0-0.001,0-0.001,0c-0.003,0-0.005,0-0.008,0
          C18.337,55,18.34,55,18.343,55z M63.515,55c-0.001,0-0.002,0-0.003,0h0C63.513,55,63.514,55,63.515,55z"/>
        <polygon points="40.022,30.209 29.168,41.065 31.882,44.336 37,38.832 37,72 41,72 42,72 42,38.898 47.534,44.269 50.921,41.108
          "/>
    </symbol>

    <symbol id="datasources-web" viewBox="0 0 80 80">
      <path d="M40,0C17.944,0,0,17.944,0,40s17.944,40,40,40s40-17.944,40-40S62.056,0,40,0z M10.998,60.08h10.318
    c1.599,5.221,3.81,9.673,6.468,13.033C20.942,70.58,15.096,65.981,10.998,60.08z M67.354,17.727h-9.39
    c-1.518-4.28-3.47-7.96-5.748-10.84C58.186,9.097,63.399,12.879,67.354,17.727z M71.764,55.374H59.912
    c0.948-4.35,1.498-9.104,1.577-14.118h13.772C75.085,46.3,73.851,51.08,71.764,55.374z M42.729,22.433h11.758
    c1.195,4.256,1.981,9.046,2.228,14.118H42.729V22.433z M38.023,36.551H23.284c0.247-5.071,1.033-9.862,2.228-14.118h12.511V36.551z
     M38.023,41.256v14.118H24.942c-1.026-4.317-1.639-9.104-1.727-14.118H38.023z M42.729,41.256h14.055
    c-0.089,5.014-0.701,9.8-1.727,14.118H42.729V41.256z M61.425,36.551c-0.222-5.051-0.923-9.811-2.029-14.118h11.196
    c2.441,4.235,4.034,9.017,4.531,14.118H61.425z M42.729,17.727V5.203c4.039,1.455,7.641,6.056,10.19,12.524H42.729z M38.023,17.727
    H27.081c2.706-6.867,6.6-11.629,10.942-12.756V17.727z M9.408,22.433h11.196c-1.106,4.307-1.807,9.067-2.029,14.118H4.877
    C5.374,31.45,6.967,26.668,9.408,22.433z M18.51,41.256c0.08,5.013,0.629,9.768,1.577,14.118H8.236
    C6.149,51.08,4.915,46.3,4.738,41.256H18.51z M38.023,60.08v14.949c-4.79-1.242-9.031-6.916-11.737-14.949H38.023z M42.729,60.08
    h10.984c-2.563,7.61-6.504,13.103-10.984,14.717V60.08z M27.785,6.887c-2.279,2.88-4.23,6.559-5.748,10.84h-9.39
    C16.601,12.879,21.814,9.097,27.785,6.887z M52.215,73.113c2.659-3.36,4.869-7.811,6.468-13.033h10.318
    C64.904,65.981,59.058,70.58,52.215,73.113z"/>
    </symbol>

    <symbol id="datasources-script" viewBox="0 0 80 80">
      <path d="M75.1,0H19.6C12.6,0,8,4.4,8,10.8v45.9c-1.3,0-2.1,0-2.6,0l0,0H2.8c-1.3,0-2.3,1-2.6,2.3
        c-0.3,2.8-1,12.6,3.1,17.5C5.4,79,8,80,10.6,80h48.5c0.3,0,0.3,0,0.5,0c0,0,0,0,0.3,0l0,0c2.3,0,4.9-0.5,7.2-3.1
        c2.6-2.6,2.8-5.4,2.8-8V25.5c0-3.6,1-6.7,2.3-8.3c0.8-0.8,1.3-1.3,2.8-1.3c1.5,0,2.6-1,2.6-2.6V2.6C77.6,1,76.6,0,75.1,0z
        M72.5,11.4c-2.1,0.5-3.1,1.5-3.9,2.3c-3.6,3.6-3.9,10.1-3.9,11.9v43.4c0,2.3-0.3,3.4-1.5,4.4c-1,1-2.1,1.5-3.9,1.5
        c-3.1,0-4.9-2.1-4.9-10.3v-5.2c0-1.3-1-2.6-2.6-2.6c-1,0-25.8,0-38.7,0V10.8c0-5.2,4.6-5.7,6.5-5.7h52.9V11.4z M10.6,74.8
        c-0.8,0-1.8-0.3-3.4-1.8c-2.1-2.3-2.3-7.5-2.1-11.1h0.3h5.2c9.8,0,31.2,0,38.7,0v2.6c0,2.6,0,7,1.5,10.3H10.6z"/>
      <path d="M18.3,23.2c0,1.5,1,2.6,2.6,2.6H57c1.5,0,2.6-1,2.6-2.6c0-1.5-1-2.6-2.6-2.6H20.9
        C19.3,20.6,18.3,21.7,18.3,23.2z"/>
      <path d="M57,31H20.9c-1.5,0-2.6,1-2.6,2.6c0,1.5,1,2.6,2.6,2.6H57c1.5,0,2.6-1,2.6-2.6C59.6,32,58.6,31,57,31z"/>
      <path d="M57,41.3H20.9c-1.5,0-2.6,1-2.6,2.6s1,2.6,2.6,2.6H57c1.5,0,2.6-1,2.6-2.6S58.6,41.3,57,41.3z"/>
    </symbol>

    <symbol id="datasources-social" viewBox="0 0 80 80">
      <path d="M40.1,0C18.2,0,0.3,17.9,0.3,39.9c0,5.5,1,10.7,3.2,15.9L0,80l23.7-3.7c5.2,2.5,10.7,3.5,16.4,3.5
        C62,79.7,80,61.8,80,39.8S62.1,0,40.1,0z M40.1,74.8c-5.2,0-10.2-1.2-15-3.5l-0.8-0.3L6,74.1l2.8-19l-0.3-0.8
        c-2.2-4.5-3.2-9.4-3.2-14.5C5.3,20.7,20.9,5,40.1,5S75,20.7,75,39.9S59.3,74.8,40.1,74.8z"/>
      <ellipse cx="22" cy="39.7" rx="5.2" ry="5.2"/>
      <ellipse cx="40.1" cy="39.7" rx="5.2" ry="5.2"/>
      <ellipse cx="58.6" cy="39.7" rx="5.2" ry="5.2"/>
    </symbol>

    <symbol id="datasources-twitter" viewBox="0 0 80 80">
      <path d="M79.052,15.454c-0.547-0.65-1.458-0.861-2.235-0.516
    c-0.544,0.241-1.096,0.465-1.654,0.672c0.927-1.362,1.661-2.859,2.17-4.45c0.241-0.755-0.009-1.581-0.629-2.075
    c-0.62-0.494-1.481-0.553-2.163-0.149c-2.562,1.52-5.319,2.628-8.207,3.301c-3.198-2.996-7.466-4.696-11.873-4.696
    c-9.558,0-17.334,7.776-17.334,17.333c0,0.477,0.019,0.952,0.057,1.424c-10.932-1.172-21.056-6.639-28.061-15.231
    c-0.396-0.486-1.006-0.748-1.629-0.697c-0.624,0.049-1.185,0.401-1.501,0.942c-1.536,2.635-2.348,5.649-2.348,8.716
    c0,3.309,0.936,6.484,2.635,9.2c-0.574-0.286-1.253-0.265-1.809,0.058c-0.582,0.338-0.943,0.957-0.951,1.629L3.52,31.132
    c0,5.439,2.553,10.404,6.611,13.614c-0.274,0.109-0.523,0.281-0.724,0.509c-0.447,0.504-0.594,1.206-0.389,1.848
    c1.733,5.41,5.956,9.515,11.173,11.201c-4.287,2.38-9.087,3.621-14.102,3.621c-1.156,0-2.318-0.068-3.455-0.202
    c-0.882-0.104-1.722,0.415-2.021,1.253c-0.3,0.838,0.018,1.771,0.767,2.251c7.379,4.731,15.912,7.232,24.675,7.232
    c17.224,0,28.004-8.128,34.014-14.946c7.487-8.494,11.781-19.738,11.781-30.849c0-0.352-0.004-0.707-0.012-1.062
    c2.857-2.199,5.324-4.839,7.342-7.857C79.65,17.038,79.599,16.105,79.052,15.454z M68.777,23.12
    c-0.521,0.377-0.819,0.99-0.79,1.633c0.028,0.633,0.043,1.276,0.043,1.91c0,10.194-3.946,20.518-10.826,28.324
    c-5.49,6.228-15.35,13.652-31.15,13.652c-5.494,0-10.889-1.073-15.915-3.138c5.939-0.718,11.505-3.021,16.284-6.766
    c0.636-0.498,0.889-1.343,0.633-2.109c-0.257-0.766-0.967-1.288-1.775-1.303c-4.757-0.088-9.031-2.651-11.383-6.618
    c1.494-0.013,2.975-0.217,4.406-0.607c0.854-0.232,1.436-1.022,1.407-1.907s-0.664-1.633-1.532-1.808
    C12.843,43.313,8.75,39.13,7.638,33.961c1.526,0.487,3.118,0.764,4.718,0.814c0.859,0.029,1.618-0.514,1.878-1.325
    c0.26-0.811-0.048-1.697-0.757-2.171c-3.765-2.516-6.013-6.722-6.013-11.251c0-1.457,0.235-2.898,0.688-4.266
    c8.091,8.682,19.296,13.938,31.187,14.534c0.601,0.028,1.177-0.223,1.561-0.683c0.384-0.46,0.53-1.074,0.395-1.657
    c-0.232-0.996-0.35-2.034-0.35-3.082c0-7.452,6.063-13.515,13.516-13.515c3.724,0,7.321,1.556,9.867,4.268
    c0.45,0.48,1.116,0.692,1.761,0.567c1.649-0.325,3.262-0.773,4.831-1.341c-0.908,1.018-1.975,1.904-3.169,2.62
    c-0.773,0.463-1.117,1.403-0.825,2.256c0.291,0.852,1.138,1.381,2.034,1.278c0.989-0.118,1.969-0.28,2.938-0.486
    C70.921,21.457,69.88,22.324,68.777,23.12z"/>
    </symbol>

    <symbol id="datasources-popular" viewBox="0 0 16 16">
        <path d="M79.607,30.374c-1.068-3.276-4.112-5.477-7.575-5.477H53.348L47.571,7.1c-1.077-3.303-4.12-5.526-7.574-5.53
      c-3.461,0-6.505,2.225-7.575,5.534l-5.775,17.792H7.968c-3.472,0-6.516,2.203-7.573,5.475c-1.071,3.28,0.09,6.854,2.891,8.894
      L18.4,50.243l-5.774,17.76c-1.074,3.287,0.087,6.866,2.891,8.906c1.37,0.995,2.99,1.521,4.682,1.521
      c1.701,0,3.322-0.528,4.683-1.523l15.115-10.984l15.11,10.98c1.366,0.998,2.988,1.526,4.688,1.526c1.691,0,3.31-0.526,4.685-1.524
      c2.8-2.038,3.961-5.618,2.89-8.907l-5.775-17.763l15.121-10.981C79.515,37.222,80.676,33.653,79.607,30.374z M74.059,35.596
      L56.28,48.509l6.791,20.889c0.463,1.423-0.039,2.971-1.249,3.851c-1.193,0.866-2.871,0.864-4.052,0.001L39.997,60.335L22.22,73.254
      c-1.171,0.857-2.86,0.858-4.044-0.001c-1.212-0.883-1.715-2.428-1.251-3.849l6.791-20.888L5.944,35.609
      c-1.21-0.881-1.713-2.422-1.25-3.841c0.454-1.406,1.77-2.351,3.273-2.351h21.966l6.791-20.92c0.458-1.417,1.804-2.406,3.271-2.406
      c1.491,0.002,2.809,0.971,3.277,2.408l6.79,20.918h21.971c1.5,0,2.816,0.948,3.276,2.358C75.768,33.184,75.266,34.72,74.059,35.596
      z"/>
    </symbol>

    <symbol id="edit-pen" viewBox="0 0 50 50">
      <polygon fill="none" points="38.4,14.9 41.7,11.6 38.4,8.3 35.2,11.6 	"/>
      <polygon fill="none" points="14.9,35.2 19.6,33 17,30.5 	"/>
      <polygon fill="none" points="21.6,31.7 18.3,28.5 33.5,13.2 36.8,16.5 	"/>
      <path d="M45,11.6L38.4,5l-6.6,6.6l0,0l-16,16.1c-0.1,0.1-0.1,0.1-0.1,0.2c0,0,0,0,0,0c0,0-0.1,0.1-0.1,0.1l-4.1,9
        c-0.2,0.4-0.1,1,0.2,1.3c0.2,0.2,0.5,0.3,0.8,0.3c0.2,0,0.3,0,0.5-0.1l9-4.1c0.1,0,0.1-0.1,0.1-0.1c0,0,0,0,0,0
        c0.1,0,0.1-0.1,0.2-0.1c0,0,0,0,0,0l0,0c0,0,0,0,0,0l16-16.1l0,0L45,11.6z M38.4,8.3l3.3,3.3l-3.3,3.3l-3.3-3.3L38.4,8.3z
         M14.9,35.2l2.1-4.7l2.6,2.6L14.9,35.2z M21.6,31.7l-3.3-3.3l15.2-15.2l3.3,3.3L21.6,31.7z"/>
      <polygon points="35.2,42.7 7.3,42.7 7.3,14.3 22.6,14.3 22.6,12 5,12 5,45 37.5,45 37.5,27.1 35.2,27.1 	"/>
    </symbol>

    <symbol id="info-icon" viewBox="0 0 50 50">

      <path fill="none" d="M25,7.4C15.3,7.4,7.4,15.3,7.4,25S15.3,42.6,25,42.6S42.6,34.7,42.6,25S34.7,7.4,25,7.4z M26.2,34.8h-2.4V21.1
        h2.4V34.8z M25,18.8c-1,0-1.8-0.8-1.8-1.8s0.8-1.8,1.8-1.8s1.8,0.8,1.8,1.8C26.8,18,26,18.8,25,18.8z"/>
      <path d="M25,5C14,5,5,14,5,25s9,20,20,20s20-9,20-20S36,5,25,5z M25,42.6c-9.7,0-17.6-7.9-17.6-17.6S15.3,7.4,25,7.4
        S42.6,15.3,42.6,25S34.7,42.6,25,42.6z"/>
      <circle cx="25" cy="17" r="1.8"/>
      <rect x="23.9" y="21.1" width="2.4" height="13.6"/>
    </symbol>

    <symbol edit="select-arrow" viewBox="0 0 80 80">
     <path style="fill:none;" d="M39.801,52.977L18.837,32.014l3.327-3.328l17.636,17.636l17.636-17.636l3.327,3.328L39.801,52.977z"/>
     <polygon points="39.801,46.322 22.165,28.686 18.837,32.014 39.801,52.977 60.764,32.014 57.437,28.686 	"/>
    </symbol>

    <symbol id="select-arrow-alt" viewBox="0 0 80 80">
      <path style="fill:none;" d="M40,4.706C20.539,4.706,4.706,20.539,4.706,40c0,19.461,15.833,35.294,35.294,35.294
        S75.294,59.461,75.294,40C75.294,20.539,59.461,4.706,40,4.706z M39.801,52.977L18.837,32.014l3.327-3.328l17.636,17.636
        l17.636-17.636l3.327,3.328L39.801,52.977z"/>
      <path d="M40,0C17.944,0,0,17.944,0,40s17.944,40,40,40s40-17.944,40-40S62.056,0,40,0z M40,75.294
        C20.539,75.294,4.706,59.461,4.706,40C4.706,20.539,20.539,4.706,40,4.706S75.294,20.539,75.294,40
        C75.294,59.461,59.461,75.294,40,75.294z"/>
      <polygon points="39.801,46.322 22.165,28.686 18.837,32.014 39.801,52.977 60.764,32.014 57.437,28.686 	"/>
    </symbol>

    <symbol id="plus" viewBox="0 0 50 50">
      <path fill="none" d="M25,7.4C15.3,7.4,7.4,15.3,7.4,25S15.3,42.6,25,42.6S42.6,34.7,42.6,25S34.7,7.4,25,7.4z M31.8,26.3h-5.6V32
        h-2.4v-5.6h-5.6V24h5.6v-5.6h2.4V24h5.6V26.3z"/>
      <path d="M25,5C14,5,5,14,5,25s9,20,20,20s20-9,20-20S36,5,25,5z M25,42.6c-9.7,0-17.6-7.9-17.6-17.6S15.3,7.4,25,7.4
        S42.6,15.3,42.6,25S34.7,42.6,25,42.6z"/>
      <polygon points="26.1,18.3 23.8,18.3 23.8,24 18.1,24 18.1,26.3 23.8,26.3 23.8,32 26.1,32 26.1,26.3 31.8,26.3 31.8,24 26.1,24
        "/>
    </symbol>

    <symbol id="notification-info" viewBox="0 0 80 80">
      <!-- <path style="fill:none;" d="M40,4.706C20.539,4.706,4.706,20.539,4.706,40S20.539,75.294,40,75.294S75.294,59.461,75.294,40
        S59.461,4.706,40,4.706z M36.34,53.183L22.697,39.54l3.327-3.328L36.34,46.528l17.636-17.636l3.327,3.328L36.34,53.183z"/> -->
      <!-- <path d="M40,0C17.944,0,0,17.944,0,40c0,22.056,17.944,40,40,40s40-17.944,40-40C80,17.944,62.056,0,40,0z M40,75.294
        C20.539,75.294,4.706,59.461,4.706,40S20.539,4.706,40,4.706S75.294,20.539,75.294,40S59.461,75.294,40,75.294z"/> -->
      <polygon points="36.34,46.528 26.024,36.212 22.697,39.54 36.34,53.183 57.303,32.219 53.976,28.892 	"/>
    </symbol>

    <symbol id="notification-info-circle" viewBox="0 0 80 80">
      <path style="fill:none;" d="M40,4.706C20.539,4.706,4.706,20.539,4.706,40S20.539,75.294,40,75.294S75.294,59.461,75.294,40
        S59.461,4.706,40,4.706z M36.34,53.183L22.697,39.54l3.327-3.328L36.34,46.528l17.636-17.636l3.327,3.328L36.34,53.183z"/>
      <path d="M40,0C17.944,0,0,17.944,0,40c0,22.056,17.944,40,40,40s40-17.944,40-40C80,17.944,62.056,0,40,0z M40,75.294
        C20.539,75.294,4.706,59.461,4.706,40S20.539,4.706,40,4.706S75.294,20.539,75.294,40S59.461,75.294,40,75.294z"/>
      <polygon points="36.34,46.528 26.024,36.212 22.697,39.54 36.34,53.183 57.303,32.219 53.976,28.892 	"/>
    </symbol>

    <symbol id="notification-download" viewBox="0 0 80 80">
      <path style="stroke:#000000;stroke-miterlimit:10;" d="M63.513,23.158c-0.865,0-1.701,0.154-2.484,0.347
        C58.044,13.01,48.874,5.833,38.142,5.833c-9.511,0-18.118,5.584-22.216,14.317C7.324,21.106,0.5,28.84,0.5,37.906
        c0,4.563,1.924,9.295,5.419,12.427c3.362,3.014,7.774,5.167,12.422,5.167c0.001,0,0.002,0,0.002,0H30.5v-3H18.343
        c-0.001,0-0.001,0-0.002,0c-3.728,0-7.402-2.126-10.079-4.526c-2.741-2.457-4.251-6.141-4.251-9.693
        c0-7.467,6.031-14.218,13.169-14.521l1.114-0.141l0.431-1.075c3.349-7.99,10.971-13.177,19.418-13.177
        c9.658,0,17.839,6.85,19.895,16.676l0.381,1.814l1.795-0.488c0.203-0.055,0.409-0.115,0.619-0.174
        c0.915-0.258,1.861-0.526,2.68-0.526c6.88,0,12.476,6.345,12.476,13.224C75.988,46.543,70.508,52.5,63.512,52.5H48.5v3h15.012
        c8.965,0,15.987-7.244,15.988-15.862C79.5,30.823,72.328,23.158,63.513,23.158z"/>
      <polygon style="stroke:#000000;stroke-miterlimit:10;" points="41.5,67.368 41.5,35.5 37.5,35.5 37.5,67.525 31.903,61.506
        29.632,63.988 39.917,74.167 50.149,63.988 47.514,61.506 	"/>
    </symbol>

    <symbol id="notification-warn-circle" viewBox="0 0 80 80">
      <path style="fill:none;" d="M40,4.706C20.539,4.706,4.706,20.539,4.706,40S20.539,75.294,40,75.294S75.294,59.461,75.294,40
        S59.461,4.706,40,4.706z M37.557,20.912h4.706v27.294h-4.706V20.912z M40,59.529c-1.949,0-3.529-1.58-3.529-3.529
        S38.051,52.47,40,52.47c1.949,0,3.529,1.58,3.529,3.529S41.949,59.529,40,59.529z"/>
      <path d="M40,0C17.944,0,0,17.944,0,40c0,22.056,17.944,40,40,40s40-17.944,40-40C80,17.944,62.056,0,40,0z M40,75.294
        C20.539,75.294,4.706,59.461,4.706,40S20.539,4.706,40,4.706S75.294,20.539,75.294,40S59.461,75.294,40,75.294z"/>
      <circle cx="40" cy="56" r="3.529"/>
      <rect x="37.557" y="20.912" width="4.706" height="27.294"/>
    </symbol>

    <symbol id="notification-warn" viewBox="0 0 80 80">
      <path style="fill:none;" d="M37.557,20.912h4.706v27.294h-4.706V20.912z M40,59.529c-1.949,0-3.529-1.58-3.529-3.529
        S38.051,52.47,40,52.47c1.949,0,3.529,1.58,3.529,3.529S41.949,59.529,40,59.529z"/>
      <circle cx="40" cy="56" r="3.529"/>
      <rect x="37.557" y="20.912" width="4.706" height="27.294"/>
    </symbol>

    <symbol id="notification-error-circle" viewBox="0 0 80 80">
      <path style="fill:none;" d="M40,4.706C20.539,4.706,4.706,20.539,4.706,40S20.539,75.294,40,75.294S75.294,59.461,75.294,40
        S59.461,4.706,40,4.706z M30,21h5v27h-5V21z M32.941,59.378c-1.949,0-3.529-1.58-3.529-3.529s1.58-3.529,3.529-3.529
        s3.529,1.58,3.529,3.529S34.89,59.378,32.941,59.378z M44,21h5v27h-5V21z M47.059,59.378c-1.949,0-3.529-1.58-3.529-3.529
        s1.58-3.529,3.529-3.529s3.529,1.58,3.529,3.529S49.008,59.378,47.059,59.378z"/>
      <path d="M40,0C17.944,0,0,17.944,0,40c0,22.056,17.944,40,40,40s40-17.944,40-40C80,17.944,62.056,0,40,0z M40,75.294
        C20.539,75.294,4.706,59.461,4.706,40S20.539,4.706,40,4.706S75.294,20.539,75.294,40S59.461,75.294,40,75.294z"/>
      <circle cx="32.941" cy="55.848" r="3.529"/>
      <rect x="30" y="21" width="5" height="27"/>
      <circle cx="47.059" cy="55.848" r="3.529"/>
      <rect x="44" y="21" width="5" height="27"/>
    </symbol>

    <symbol id="fusion-notifications-accent" viewBox="0 0 50 50">
      <path style="fill:#DB2F31;" d="M42.2,21.5c0-3.8-3.1-6.9-6.9-6.9s-6.9,3.1-6.9,6.9s3.1,6.9,6.9,6.9S42.2,25.3,42.2,21.5z" />
    </symbol>

    <symbol id="notification-error" viewBox="0 0 80 80">
      <!-- <path d="M40,0C17.944,0,0,17.944,0,40c0,22.056,17.944,40,40,40s40-17.944,40-40C80,17.944,62.056,0,40,0z M40,75.294
        C20.539,75.294,4.706,59.461,4.706,40S20.539,4.706,40,4.706S75.294,20.539,75.294,40S59.461,75.294,40,75.294z"/> -->
      <circle cx="32.941" cy="55.848" r="3.529"/>
      <rect x="30" y="21" width="5" height="27"/>
      <circle cx="47.059" cy="55.848" r="3.529"/>
      <rect x="44" y="21" width="5" height="27"/>
    </symbol>

    <symbol id="closex" viewBox="0 0 40 40">
      <path style="fill:#FFFFFF;" d="M20,38.75c-5.009,0-9.718-1.95-13.259-5.491c-7.31-7.311-7.31-19.206,0-26.517
        C10.283,3.2,14.991,1.25,20,1.25s9.717,1.95,13.259,5.492c7.31,7.311,7.31,19.207,0,26.517C29.718,36.8,25.009,38.75,20,38.75z"/>
      <path style="fill:#E6E6E6;" d="M20,2.5c4.674,0,9.069,1.82,12.374,5.126c6.823,6.823,6.823,17.925,0,24.749
        C29.069,35.68,24.674,37.5,20,37.5s-9.069-1.82-12.374-5.126c-6.823-6.823-6.823-17.925,0-24.749C10.931,4.32,15.326,2.5,20,2.5
         M20,0C14.882,0,9.763,1.953,5.858,5.858c-7.81,7.81-7.81,20.474,0,28.284C9.763,38.047,14.882,40,20,40
        s10.237-1.953,14.142-5.858c7.81-7.81,7.81-20.474,0-28.284C30.237,1.953,25.118,0,20,0L20,0z"/>
      <line style="fill:#FFFFFF;stroke:#E6E6E6;stroke-width:2;stroke-miterlimit:10;" x1="14.807" y1="25.099" x2="25.06" y2="14.846"/>
      <line style="fill:#FFFFFF;stroke:#E6E6E6;stroke-width:2;stroke-miterlimit:10;" x1="14.807" y1="14.846" x2="25.06" y2="25.099"/>
    </symbol>
    <symbol id="checkwhite" viewBox="0 0 20 20">
      <path style="fill:#FFFFFF;" d="M10,2c4.411,0,8,3.589,8,8s-3.589,8-8,8s-8-3.589-8-8S5.589,2,10,2 M10,0C4.477,0,0,4.477,0,10
        s4.477,10,10,10s10-4.477,10-10S15.523,0,10,0L10,0z"/>
      <polyline style="fill:none;stroke:#FFFFFF;stroke-width:2;stroke-miterlimit:10;" points="5.846,9.572 9.028,12.754 14.154,7.628"/>
    </symbol>

    <symbol id="questionMark" viewBox="0 0 16 16">
      <path fill="#4CC4D1" d="M8,0.5C3.9,0.5,0.5,3.9,0.5,8s3.4,7.5,7.5,7.5s7.5-3.4,7.5-7.5S12.1,0.5,8,0.5z M8.1,12.5c-0.6,0-1-0.5-1-1
        c0-0.6,0.5-1,1-1c0.6,0,1,0.5,1,1C9.1,12,8.6,12.5,8.1,12.5z M8.9,10H7.3c0-1,1.9-2.6,1.9-3.7c0-0.7-0.5-0.5-1-0.5
        C7.4,5.8,6.9,6,6.9,8H5.1c0-2,1.5-3.8,3-3.8c1.8,0,3,0.8,3,2.3C11.1,8.7,8.9,9,8.9,10z"/>
      </symbol>



    <symbol id="checkmark" viewBox="0 0 50 50">
      <circle fill="#4bc4d1" cx="25" cy="25" r="16"/>
      <polyline fill="none" stroke="#ffffff" stroke-width="4" stroke-miterlimit="10" points="18.4,24.1 23.4,29.2
      31.6,21 	"/>
    </symbol>

    <symbol id="database" viewBox="0 0 72 72">
      <path style="fill:none;stroke:#DC3031;stroke-width:4;stroke-linecap:round;stroke-linejoin:round;stroke-miterlimit:10;" d="
        M66.488,20.274C66.488,12.391,52.742,6,36,6S5.512,12.391,5.512,20.274v31.451C5.512,59.609,19.258,66,36,66
        s30.401-6.391,30.401-14.274L66.488,20.274z"/>
      <path style="fill:none;stroke:#DC3031;stroke-width:4;stroke-linecap:round;stroke-linejoin:round;stroke-miterlimit:10;" d="
        M66.468,36c0,7.884-13.552,14.274-30.294,14.274S5.512,43.884,5.512,36"/>
      <ellipse style="fill:none;stroke:#DC3031;stroke-width:4;stroke-linecap:round;stroke-linejoin:round;stroke-miterlimit:10;" cx="36.174" cy="20.274" rx="30.314" ry="14.274"/>
    </symbol>

    <symbol id="filesystem" viewBox="0 0 72 72">
      <polygon style="fill:none;stroke:#DC3031;stroke-width:4;stroke-miterlimit:10;" points="23.109,7 58.167,7 58.167,66 13.167,66
        13.167,16.135 		"/>
      <polyline style="fill:none;stroke:#DC3031;stroke-width:4;stroke-miterlimit:10;" points="24.167,7 24.167,18 13.167,18 		"/>
      <line style="fill:#FFFFFF;stroke:#DC3031;stroke-width:4;stroke-miterlimit:10;" x1="19.167" y1="29" x2="52.167" y2="29"/>
      <line style="fill:#FFFFFF;stroke:#DC3031;stroke-width:4;stroke-miterlimit:10;" x1="19.167" y1="36" x2="52.167" y2="36"/>
      <line style="fill:#FFFFFF;stroke:#DC3031;stroke-width:4;stroke-miterlimit:10;" x1="19.167" y1="44" x2="52.167" y2="44"/>
    </symbol>

    <symbol id="website" viewBox="0 0 72 72">
      <circle style="fill:none;stroke:#DC3031;stroke-width:4;stroke-miterlimit:10;" cx="36" cy="36" r="30"/>
      <ellipse style="fill:none;stroke:#DC3031;stroke-width:4;stroke-miterlimit:10;" cx="36" cy="36" rx="15.263" ry="30"/>
      <line style="fill:#FFFFFF;stroke:#DC3031;stroke-width:4;stroke-miterlimit:10;" x1="10.241" y1="20.126" x2="60.866" y2="20.126"/>
      <line style="fill:#FFFFFF;stroke:#DC3031;stroke-width:4;stroke-miterlimit:10;" x1="9.116" y1="50.126" x2="62.741" y2="50.126"/>
      <line style="fill:#FFFFFF;stroke:#DC3031;stroke-width:4;stroke-miterlimit:10;" x1="6.491" y1="35.126" x2="65.366" y2="35.126"/>
      <line style="fill:#FFFFFF;stroke:#DC3031;stroke-width:4;stroke-miterlimit:10;" x1="35.741" y1="65.876" x2="35.741" y2="7.001"/>
    </symbol>

    <symbol id="greencheck" viewBox="0 0 20 20">
      <path style="fill:#36A93A;" d="M10,2c4.411,0,8,3.589,8,8s-3.589,8-8,8s-8-3.589-8-8S5.589,2,10,2 M10,0C4.477,0,0,4.477,0,10
        s4.477,10,10,10s10-4.477,10-10S15.523,0,10,0L10,0z"/>
      <polyline style="fill:none;stroke:#36A93A;stroke-width:2;stroke-miterlimit:10;" points="5.846,9.572 9.028,12.754 14.154,7.628"/>
    </symbol>

    <symbol id="important-triangle" viewBox="0 0 50 50">
      <path fill="none" stroke-width="2" stroke-miterlimit="10" d="M27.6,11.4l14.2,24.2c1.1,1.9-0.3,4.4-2.5,4.4H10.9 c-2.2,0-3.6-2.4-2.5-4.4l14.2-24.2C23.7,9.5,26.5,9.5,27.6,11.4z" />
      <rect stroke="none" x="23" y="33" width="4" height="4" />
      <polygon stroke="none" points="23,22.7 23,30 27,30 27,22.7 27,17 23,17 " />
    </symbol>

    <symbol id="one-circle" viewBox="0 0 50 50">
      <path d="M25,9C16.2,9,9,16.2,9,25s7.2,16,16,16s16-7.2,16-16S33.8,9,25,9z"/>
      <g>
        <path fill="#FFFFFF" d="M24,34V20.9L21.1,24L19,21.7l5.7-5.7H28v18H24z"/>
      </g>
    </symbol>

    <symbol id="two-circle" viewBox="0 0 50 50">
      <path d="M25,9C16.2,9,9,16.2,9,25s7.2,16,16,16s16-7.2,16-16S33.8,9,25,9z"/>
      <g>
        <path fill="#FFFFFF" d="M18,34v-2.8c8-5.5,9.8-7.3,9.8-9.5c0-1.6-1.3-2.4-2.8-2.4c-2.1,0-3.6,0.8-4.8,2.1L18,18.8
          c1.8-2,4.5-2.9,7-2.9c3.8,0,6.9,2.3,6.9,5.9c0,3.1-2.5,5.3-7.2,9.3H32v3H18z"/>
      </g>
    </symbol>

    <symbol id="three-circle" viewBox="0 0 50 50">
      <path d="M25,9C16.2,9,9,16.2,9,25s7.2,16,16,16s16-7.2,16-16S33.8,9,25,9z M24.7,34.1c-3.3,0-5.8-1.3-7.1-2.9l2-2.6
        c1.2,1.3,3.2,2.1,5,2.1c2.2,0,3.4-0.9,3.4-2.3c0-1.4-1.2-2.1-3.7-2.1c-0.8,0-2.3,0-2.3,0.1v-3.5c0,0,1.6,0,2.3,0
        c2,0,3.4-0.6,3.4-1.9c0-1.4-1.4-2.1-3.3-2.1c-1.7,0-3.3,0.6-4.6,1.9l-1.9-2.4c1.5-1.7,3.7-2.9,6.9-2.9c4.2,0,6.8,1.9,6.8,4.9
        c0,2.3-1.9,3.8-3.9,4.1c1.8,0.2,4.2,1.6,4.2,4.3C31.8,31.9,29,34.1,24.7,34.1z"/>
    </symbol>

    <symbol id="arrow-up" viewBox="0 0 10 10">
      <g>
        <polygon points="6,3.8 7.9,5.7 9.4,4.2 5.1,0 0.9,4.2 2.2,5.7 4,3.8 4,10 6,10 	"/>
      </g>
    </symbol>

    <symbol id="arrow-down" viewBox="0 0 10 10">
      <g>
        <polygon points="4,6.2 2.2,4.3 0.8,5.8 5.1,10 9.3,5.8 7.9,4.3 6,6.2 6,0 4,0 	"/>
      </g>
    </symbol>

    <symbol id="arrow-down-right" viewBox="0 0 10 10">
      <g>
        <polygon points="10,3 8,3 8,6.7 1.5,0 0.1,1.5 6.6,8 3,8 3,10 10,10 	"/>
      </g>
    </symbol>

    <symbol id="arrow-up-right" viewBox="0 0 10 10">
      <g>
        <polygon points="3,0 3,2 6.7,2 0.1,8.6 1.5,10 8,3.4 8,7 10,7 10,0 	"/>
      </g>
    </symbol>

    <symbol id="rwb-plus" viewBox="0 0 10 10">
      <g>
        <path d="M6,6v4H4V6H0V4h4V0h2v4h4v2H6z"/>
      </g>
    </symbol>

    <symbol id="rwb-minus" viewBox="0 0 7.3 7.2">
      <g>
        <path d="M0,2V0h6v2H0z"/>
      </g>
    </symbol>

    <symbol id="dropdown-down" viewBox="0 0 10 6">
      <g>
        <path d="M9.2,0H0.8C0.5,0,0.4,0.3,0.6,0.5l4.2,5.4C4.9,6,5.1,6,5.2,5.9l4.2-5.4C9.6,0.3,9.5,0,9.2,0z"/>
      </g>
    </symbol>

    <symbol id="dropdown-right" viewBox="0 0 6 10">
      <g>
        <path d="M0,0.8v8.5c0,0.2,0.3,0.3,0.5,0.2l5.2-4.2c0.1-0.1,0.1-0.3,0-0.4L0.5,0.6C0.3,0.4,0,0.5,0,0.8z"/>
      </g>
    </symbol>

    <symbol id="settings" viewBox="0 0 50 50">
      <g>
        <path d="M41,27.3v-4l-4.7-2c-0.1-0.4-0.2-0.7-0.4-1.1l1.9-4.8l-2.8-2.8l-4.7,2c-0.4-0.2-0.7-0.5-1.1-0.6l-2-4.9h-4
    l-2,4.9c-0.4,0.1-0.8,0.4-1.2,0.6l-4.7-1.9l-2.8,2.8l1.9,4.7c-0.2,0.4-0.5,0.8-0.7,1.2l-4.9,2v4l4.9,2c0.1,0.4,0.4,0.8,0.6,1.2
    l-1.8,4.7l2.8,2.8l4.7-1.9c0.4,0.2,0.8,0.2,1.2,0.4l2,4.6h4l2-4.6c0.4-0.1,0.8-0.2,1.1-0.4l4.8,1.9l2.8-2.8l-2-4.7
    c0.2-0.4,0.2-0.7,0.3-1.1L41,27.3z M25.3,30.7c-3,0-5.4-2.4-5.4-5.4c0-3,2.4-5.4,5.4-5.4c3,0,5.4,2.4,5.4,5.4
    C30.6,28.3,28.2,30.7,25.3,30.7z"/>
      </g>
    </symbol>

    <symbol id="checkbox-unselected" viewBox="0 0 16 16">
      <g>
        <path fill="#FFFFFF" d="M14.8,2c0-0.5-0.3-0.8-0.8-0.8H2C1.5,1.2,1.2,1.5,1.2,2v12c0,0.4,0.3,0.8,0.8,0.8h12
      c0.4,0,0.8-0.3,0.8-0.8V2z"/>
    <path fill="#D9D9D8" d="M15.5,2c0-0.8-0.7-1.5-1.5-1.5H2C1.2,0.5,0.5,1.2,0.5,2v12c0,0.8,0.7,1.5,1.5,1.5h12
      c0.8,0,1.5-0.7,1.5-1.5V2z M14.8,14c0,0.4-0.3,0.8-0.8,0.8H2c-0.5,0-0.8-0.3-0.8-0.8V2c0-0.5,0.3-0.8,0.8-0.8h12
      c0.4,0,0.8,0.3,0.8,0.8V14z"/>
      </g>
    </symbol>
    <symbol id="checkbox-selected" viewBox="0 0 16 16">
      <g>
        <path d="M15.5,2c0-0.8-0.7-1.5-1.5-1.5H2C1.2,0.5,0.5,1.2,0.5,2v12c0,0.8,0.7,1.5,1.5,1.5h12
      c0.8,0,1.5-0.7,1.5-1.5V2z M7,11.7L3.9,8.5l1-1L7,9.6l4.8-4.8l1.1,1L7,11.7z"/>
      </g>
    </symbol>

    <symbol id="hamburger" viewBox="0 0 16 16">
      <g>
        <rect x="0.5" y="2" width="15" height="2"/>
        <rect x="0.5" y="7" width="15" height="2"/>
        <rect x="0.5" y="12" width="15" height="2"/>
      </g>
    </symbol>
    <symbol id="delete" viewBox="0 0 50 50">
      <g>
        <polygon points="38.2,14.4 35.4,11.6 24.8,22.2 14.2,11.6 11.4,14.4 22,25 11.4,35.6 14.2,38.4 24.8,27.8 35.4,38.4
          38.2,35.6 27.6,25 "/>
      </g>
    </symbol>
    <symbol id="back-arrow" viewBox="0 0 10 10" >
      <g>
        <polygon points="4.2,4 6.1,2.2 4.7,0.8 0.4,5 4.7,9.2 6.1,7.8 4.2,6 10,6 10,4 "/>
      </g>
    </symbol>

    <symbol id="global-swap" viewBox="0 0 32 32">
      <polygon points="32,24 15,24 15,20 0,26 15,32 15,28 32,28 "/>
      <polygon points="32,6 17,0 17,4 0,4 0,8 17,8 17,12 "/>
    </symbol>

</svg>
